<svg xmlns:xlink="http://www.w3.org/1999/xlink" enable-background="new 0 0 87 120" width="87" height="120" viewBox="0 0 87 120" xmlns="http://www.w3.org/2000/svg">
<g id="svg-logo-mille-et-un-sourires">
  <style type="text/css">
    #green{fill:#B5CC2A;} #black{fill:#1D1D1B;} #pink{fill:#E7619E;}
  </style>
<g id="green" fill="#B5CC2A">
  <path d="M54.5,35.8c0,0,3.9-4.3,5.1-15.4c0,0,0.2-1.9,0.5-3.7c0,0-2.4,1.5-5.2,2.2C52,19.7,44.1,22.7,45,37.6
    C45,37.6,49.7,34.4,54.5,35.8z" fill="#B5CC2A"></path>
  <path d="M55.5,36.1c0,0,3.8,0.9,6,6.9c0,0,3.9-3.7,5.9-8.8c0,0,1.7-3.7,2.3-4.6c0.6-0.9,0.8-1.3,0.4-1.3
    s-1.7,0.6-4.2,0.6c-2.5,0-4.3,0-5.3,0.5c-1,0.5-2.1,1-2.5,1C58.1,30.5,56.6,34.2,55.5,36.1z" fill="#B5CC2A"></path>
  <path d="M66,39.1c0,0-2.9,3.5-4.2,4.9c0,0,0.3,3.3,0,5.2c0,0,4.3-1.5,6.1-3.6s4.7-4.6,5.4-4.9c0,0-1.6-0.1-2.3-0.5
    C70.1,39.9,66.9,38.9,66,39.1z" fill="#B5CC2A"></path>
  <path d="M68.4,49.2c-0.9-1.1-1.4-1.6-1.7-1.6c0,0-1.1,1.2-5.1,2.5c0,0,0.1,1.9,0,3.3c0,0,7.7-1.4,9.1-2.2
    C70.7,51.3,69.3,50.3,68.4,49.2z" fill="#B5CC2A"></path>
  <path d="M66.5,55.2c-0.4-0.9-0.9-1.4-1.1-1.6c0,0-1.6,0.7-3.8,0.6v0c0,0-0.4,2.4-0.6,2.7c0,0,5.9,0.1,6.5,0.4
    C67.5,57.2,66.9,56,66.5,55.2z" fill="#B5CC2A"></path>
  <path d="M62.9,58c0,0-1.7,0-2.2-0.2v0c0,0-0.6,1.7-0.9,2.3c0,0,0.5,0.1,0.9,0.4c0.4,0.2,2.5,0.9,3,0.9
    C63.7,61.4,62.9,59.1,62.9,58z" fill="#B5CC2A"></path>
  <path d="M58.5,63.5c0.2,0.1,2,0.9,2.5,0.9c0,0-0.7-2.3-0.6-3.1c0,0-0.7-0.1-1.1-0.4c0,0-1.1,1.7-1.6,2.5
    C57.7,63.5,58.3,63.4,58.5,63.5z" fill="#B5CC2A"></path>
  <path d="M56.1,65.1c0.4,0.3,2,1,2,1v-1.7C56.6,63.9,56.1,65.1,56.1,65.1z" fill="#B5CC2A"></path>
  <path d="M30.9,35.8c4.8-1.3,9.5,1.8,9.5,1.8c0.9-14.9-7-18-9.9-18.7c-2.8-0.7-5.2-2.2-5.2-2.2c0.4,1.7,0.5,3.7,0.5,3.7
    C27.1,31.5,30.9,35.8,30.9,35.8z" fill="#B5CC2A"></path>
  <path d="M18.1,34.2c2,5.1,5.9,8.8,5.9,8.8c2.1-6,6-6.9,6-6.9c-1.1-2-2.6-5.7-2.6-5.7c-0.3,0-1.4-0.5-2.5-1
    c-1-0.5-2.8-0.5-5.3-0.5c-2.5,0-3.8-0.6-4.2-0.6s-0.2,0.4,0.4,1.3C16.3,30.5,18.1,34.2,18.1,34.2z" fill="#B5CC2A"></path>
  <path d="M17.6,45.7c1.8,2.1,6.1,3.6,6.1,3.6c-0.3-2,0-5.2,0-5.2c-1.3-1.3-4.2-4.9-4.2-4.9c-0.9-0.2-4.1,0.8-4.9,1.1
    c-0.8,0.4-2.3,0.5-2.3,0.5C12.9,41,15.8,43.5,17.6,45.7z" fill="#B5CC2A"></path>
  <path d="M23.8,50.1c-4.1-1.3-5.1-2.5-5.1-2.5c-0.3,0.1-0.8,0.6-1.7,1.6s-2.2,2-2.2,2c1.4,0.7,9.1,2.2,9.1,2.2
    C23.7,52,23.8,50.1,23.8,50.1z" fill="#B5CC2A"></path>
  <path d="M23.8,54.2L23.8,54.2c-2.2,0-3.8-0.6-3.8-0.6c-0.3,0.2-0.8,0.7-1.1,1.6c-0.4,0.9-1,2.1-1,2.1
    c0.6-0.3,6.5-0.4,6.5-0.4C24.2,56.6,23.8,54.2,23.8,54.2z" fill="#B5CC2A"></path>
  <path d="M25.6,60.1c-0.3-0.6-0.9-2.3-0.9-2.3C24.2,58,22.5,58,22.5,58c0,1.1-0.8,3.4-0.8,3.4c0.5,0.1,2.5-0.7,3-0.9
    S25.6,60.1,25.6,60.1z" fill="#B5CC2A"></path>
  <path d="M27.7,63.5c-0.5-0.9-1.6-2.5-1.6-2.5c-0.4,0.3-1.1,0.4-1.1,0.4c0.2,0.8-0.6,3.1-0.6,3.1c0.6,0,2.3-0.8,2.5-0.9
    C27.1,63.4,27.7,63.5,27.7,63.5z" fill="#B5CC2A"></path>
  <path d="M27.3,64.4v1.7c0,0,1.6-0.7,2-1C29.3,65.1,28.8,63.9,27.3,64.4z" fill="#B5CC2A"></path>
  <path d="M32.8,59c-6.3-3.5-8.2-7.3-8.2-7.3c1,18,18,18.1,18,18.1C61.2,69,60.7,52,60.7,52c-1.3,2.9-4.2,4.4-9.8,8.1
    c-5.6,3.7-8.3,8.5-8.3,8.5C42.2,66.7,39.1,62.5,32.8,59z" fill="#B5CC2A"></path>
  <path d="M41.3,73.7c0,1.8,0.6,3.3,1.4,3.3s1.4-1.5,1.4-3.3s-0.6-3.3-1.4-3.3C41.9,70.4,41.3,71.9,41.3,73.7z" fill="#B5CC2A"></path>
  <path d="M34.7,105.9c0,0,0,0-0.2,0L34.7,105.9z" fill="#B5CC2A"></path>
  <path d="M40.4,105.2L40.4,105.2C40.4,105.2,40.4,105.2,40.4,105.2C40.4,105.2,40.4,105.2,40.4,105.2z" fill="#B5CC2A"></path>
  <path d="M78.7,90.3L78.7,90.3c-0.9,0.2-1.5,0.4-2,0.7c-0.2-0.1-0.7,0.2-1,0.3l0,0c-0.5,0.3-1.2,0.3-1.6,0.6
    c0,0,0-0.1,0.1-0.1c-0.4,0.2-0.9,0.4-1,0.3c-0.9,0.4-2.2,0.8-2.7,1.1l0,0c-0.3,0.2-0.4,0.2-0.8,0.4c0,0-0.1,0-0.1,0
    c-0.3,0.2-1.1,0.4-1.3,0.5l0-0.1l-0.7,0.3l0.3-0.1c0,0.2-0.6,0.1-1.1,0.4c-0.5,0.2-0.9,0.7-1.4,0.8c-0.2,0.2,0.2-0.2-0.2,0
    c0-0.1,0.1-0.1,0-0.2c-0.3,0.2-0.6,0.1-1,0.3l0-0.1c-0.5,0.3-1.1,0.3-1.5,0.6c-0.6,0.3-0.5-0.1-1,0.3l-0.3,0
    c-0.3,0.1-0.1,0.2-0.5,0.2c0-0.1-0.4,0.1-0.2,0c-0.7,0.1-1.3,0.6-2.2,0.8c-0.1,0.2-0.6,0.3-0.7,0.4c0,0-0.9,0.3-0.4,0
    c0,0,0.1,0,0.1,0l0-0.1c-0.5,0-0.9,0.4-1.4,0.5c0.2,0,0.3-0.1,0.2,0l-0.5,0.2l0.1-0.1l-0.7,0.2l0.1,0c-0.3,0.1-0.5,0-0.9,0.2
    c-0.1,0.1,0.4,0,0,0.1c-0.5,0.1-1.2,0.3-1.7,0.4c0.1,0.1-0.1,0.1-0.2,0.2l0-0.1c-0.6,0.3-0.3-0.1-0.9,0.2l0-0.1l-0.1,0.2
    c-0.5,0.3-0.3-0.1-0.9,0.4c0.2-0.1,0.2,0.1-0.1,0.2l0-0.1c-0.2,0.1-0.2,0.1-0.3,0.1c0.1-0.1,0-0.1-0.2,0l0.1-0.1l-0.4,0.3
    c-0.4,0-0.9,0.3-1.1,0.3c0,0-0.8,0.2-0.9,0.4c0.1-0.1-0.3,0-0.2-0.1c-0.2,0.1-0.7,0.4-1,0.4l0,0c-0.9,0.2-1.4,0.6-2.2,0.8
    c0.1,0.1-0.4,0.2-0.2,0.2c-0.7,0.4-1.5,0.3-1.7,0.7c-0.4,0.1-0.5,0.1-0.6,0.1l0.1,0c-0.7,0.3-0.9,0.3-1.4,0.5
    c-0.2,0.1-0.2,0.3-0.7,0.4c0.1-0.1-0.1,0-0.2,0c0.1,0,0.1-0.1-0.1,0c0,0-0.1,0.1-0.1,0.1c0,0,0,0,0,0c-0.3,0.1-0.2,0.1-0.1,0.1
    c0,0,0,0,0.1,0c-0.3,0-0.8,0.3-0.9,0.2c-0.8,0.3-1.4,0.6-2.1,0.9c-0.1,0,0-0.1,0.2-0.2l-0.5,0.2c0-0.1,0.3-0.1,0.4-0.2
    c-0.6,0.1-1.2,0.6-1.9,0.7l-0.1,0.1l0,0c0,0-0.1,0.1-0.2,0.2c-0.1,0-0.1-0.2-0.4,0c-0.3,0-0.8,0.3-1.1,0.5c0.2-0.1,0.1,0,0.1,0.1
    c-0.2,0.1-0.3,0-0.4,0.1l-0.1-0.1c0.1,0.1-0.4,0.3-0.5,0.3c-0.1,0,0.2-0.2,0.3-0.2c-0.7,0.2-0.3,0.1-1,0.4c-0.3,0.2,0.1,0.1,0,0.2
    c-0.3,0.1-0.6,0.3-1,0.4l0.1,0c-0.6,0.3-0.9,0.4-1.4,0.5c-4.3,2.3-0.6,1.3-0.6,1.3c1.8-0.4,2.7-1,4.8-1.8c1.9-0.6,2.4-0.6,4.3-1.4
    c0.9-0.3,1.9-0.7,2.8-1c0.4-0.3,1.2-0.4,1.6-0.7l0.2,0c0.2-0.1,0.4-0.2,0.5-0.2l0,0c0.2-0.1,0.5-0.2,0.7-0.3l0,0l0.3-0.1l0,0
    c0.4-0.2,0.9-0.4,1.3-0.5l-0.1-0.1c0.9-0.2,1.2-0.5,2-0.7l0,0c0.9-0.6,1.6-0.4,2.6-1c-0.1,0.1,0.1,0,0.1,0.1c0.5-0.2,1-0.4,0.9-0.6
    c0.3-0.1,0.3,0,0.4,0c0-0.1,0.3-0.2,0.5-0.3l-0.1,0.1l0.8-0.3l-0.2-0.1c0.4-0.1,0.2,0.1,0.5,0l0-0.1c0.6-0.2,1-0.1,1.6-0.2
    c2.3-0.8,4.7-1.9,6.9-2.5l0.1,0.1c0.1,0.1,0.5-0.4,0.6-0.3l0.2-0.1c0.1,0,0.2,0,0.1,0c0.2-0.1,0.2-0.1,0.4-0.2l0.3,0
    c0.9-0.3,1.6-0.7,2.6-1c1.2-0.2,3.3-1.1,4.5-1.7c1.7-0.8,3.9-1,5.6-1.9c0.1,0,0.2-0.1,0.2-0.1l1.6-0.6C77.2,92,85.2,89.3,78.7,90.3
    z" fill="#B5CC2A"></path>
</g>
<g id="black" fill="#1D1D1B">
  <path d="M21.2,84l3.2,6.1l1.6-0.6l-1.4-6.9l2.3,6.6l2.2-0.8l-3.4-9.8l-3.3,1.2l1,4.8l-1.2-2.4c-0.4-0.8-0.7-1.4-1-2
    l-3.3,1.2l3.4,9.8l2.2-0.8L21.2,84z" fill="#1D1D1B"></path>
  <rect x="28.3" y="77.6" transform="matrix(0.9431 -0.3325 0.3325 0.9431 -25.8421 14.577)" width="2.7" height="10.4" fill="#1D1D1B"></rect>
  <polygon points="37.8,85.4 37.1,83.5 35.5,84 32.8,76.2 30.2,77.1 33.7,86.9  " fill="#1D1D1B"></polygon>
  <polygon points="42.4,83.8 41.8,81.8 40.2,82.4 37.5,74.6 34.9,75.5 38.4,85.2  " fill="#1D1D1B"></polygon>
  <polygon points="47.5,82 46.8,80.1 44.9,80.7 44.1,78.6 45.7,78 45.1,76.2 43.5,76.7 42.8,74.9 44.5,74.3 43.8,72.3
    39.6,73.8 43.1,83.6   " fill="#1D1D1B"></polygon>
  <polygon points="54.8,79.5 54.1,77.5 52.2,78.2 51.4,76 53,75.4 52.4,73.6 50.8,74.1 50.1,72.3 51.8,71.7 51.1,69.7
    46.9,71.2 50.4,81   " fill="#1D1D1B"></polygon>
  <polygon points="53.6,71.1 56.4,78.9 58.9,78 56.2,70.2 57.7,69.6 57,67.7 51.4,69.6 52.1,71.6  " fill="#1D1D1B"></polygon>
  <path d="M62.6,74.7c0.2,0.3,0.4,0.6,0.7,0.8c0.3,0.2,0.8,0.4,1.3,0.4c0.5,0,1.1,0,1.6-0.3c0.5-0.2,1-0.4,1.3-0.7
    c0.3-0.3,0.6-0.6,0.7-1c0.1-0.4,0.2-0.8,0.1-1.1c-0.1-0.3-0.2-0.8-0.5-1.6l-2.3-6.5L63,65.6l2.5,7.2c0.2,0.5,0.3,0.8,0.3,1
    c0,0.1-0.1,0.2-0.2,0.3c-0.1,0-0.3,0-0.3-0.1c-0.1-0.1-0.2-0.4-0.4-0.8l-2.6-7.3l-2.5,0.9l2,5.8C62.1,73.6,62.4,74.3,62.6,74.7z" fill="#1D1D1B"></path>
  <polygon points="72,73.4 70.5,68.9 73.4,72.9 75.6,72.1 72.1,62.3 70,63.1 71.6,67.5 68.6,63.6 66.5,64.3 69.9,74.1
    " fill="#1D1D1B"></polygon>
  <path d="M30.3,97.9c-0.5-0.4-1.5-0.7-3.1-1c-0.5-0.1-0.9-0.2-1.1-0.4c-0.2-0.2-0.3-0.4-0.4-0.8
    c-0.1-0.3-0.1-0.5-0.1-0.7c0-0.2,0.1-0.3,0.3-0.4c0.2-0.1,0.3,0,0.4,0c0.1,0.1,0.2,0.3,0.4,0.7l0.3,0.8l2.7-0.9l-0.2-0.4
    c-0.3-0.9-0.6-1.5-0.9-1.8c-0.3-0.3-0.8-0.5-1.4-0.5c-0.6-0.1-1.3,0-2,0.3c-0.7,0.2-1.2,0.6-1.6,0.9c-0.4,0.4-0.6,0.8-0.7,1.3
    c-0.1,0.5,0,1.1,0.3,2c0.2,0.6,0.5,1,0.7,1.4c0.3,0.3,0.6,0.6,0.9,0.7s0.9,0.3,1.8,0.5c0.9,0.2,1.4,0.4,1.7,0.5
    c0.2,0.1,0.5,0.5,0.7,1.2c0.1,0.3,0.1,0.5,0.1,0.7c0,0.2-0.2,0.3-0.3,0.4c-0.2,0.1-0.3,0.1-0.5,0c-0.1-0.1-0.2-0.3-0.4-0.8
    l-0.5-1.4l-2.7,0.9l0.3,0.7c0.3,0.8,0.6,1.4,0.9,1.8c0.3,0.4,0.8,0.6,1.5,0.7c0.6,0.1,1.4,0,2.1-0.3c0.7-0.2,1.3-0.6,1.7-1
    c0.4-0.4,0.7-0.9,0.7-1.3s-0.1-1.1-0.3-1.8C31.2,99,30.8,98.2,30.3,97.9z" fill="#1D1D1B"></path>
  <path d="M38.5,95.7l-0.7-1.9c-0.4-1.1-0.7-1.9-0.9-2.4c-0.2-0.4-0.5-0.8-1-1.1s-0.9-0.4-1.4-0.5
    c-0.5,0-1.1,0.1-1.7,0.3c-0.6,0.2-1.1,0.5-1.5,0.9c-0.4,0.4-0.7,0.8-0.8,1.3c-0.1,0.5-0.2,1,0,1.4c0.1,0.5,0.4,1.3,0.8,2.4l0.7,1.9
    c0.4,1.1,0.7,1.9,0.9,2.4c0.2,0.4,0.5,0.8,1,1.1c0.4,0.3,0.9,0.4,1.4,0.5c0.5,0,1.1-0.1,1.7-0.3c0.6-0.2,1.1-0.5,1.5-0.9
    c0.4-0.4,0.7-0.8,0.8-1.3c0.1-0.5,0.2-1,0-1.4C39.1,97.6,38.8,96.8,38.5,95.7z M36.2,99.8c-0.2,0.1-0.3,0-0.4-0.1
    c-0.1-0.1-0.3-0.5-0.5-1.2l-1.8-5.2c-0.2-0.6-0.3-0.9-0.2-1.1c0-0.1,0.1-0.2,0.3-0.3c0.2-0.1,0.3,0,0.4,0.1c0.1,0.1,0.3,0.4,0.4,1
    l1.8,5.1c0.2,0.7,0.3,1.1,0.4,1.3C36.4,99.6,36.4,99.7,36.2,99.8z" fill="#1D1D1B"></path>
  <path d="M46.4,93.9l-2.6-7.4l-2.9,1l2.9,8.2c0.2,0.6,0.3,0.9,0.3,1.1S44,97,43.8,97.1c-0.2,0.1-0.3,0-0.4-0.1
    c-0.1-0.1-0.2-0.4-0.4-0.9l-2.9-8.3l-2.9,1l2.3,6.6c0.4,1.2,0.8,2.1,0.9,2.4c0.2,0.4,0.5,0.7,0.8,1c0.4,0.3,0.9,0.4,1.4,0.5
    c0.6,0,1.2-0.1,1.9-0.3c0.6-0.2,1.1-0.5,1.5-0.8c0.4-0.3,0.6-0.7,0.8-1.2c0.1-0.5,0.2-0.9,0.1-1.2C46.9,95.3,46.7,94.7,46.4,93.9z" fill="#1D1D1B"></path>
  <path d="M53.5,90.4c-0.1-0.2-0.3-0.4-0.6-0.5c-0.3-0.2-0.7-0.2-1.3-0.2c0.6-0.3,1-0.6,1.1-1c0.1-0.4,0-1-0.3-1.9
    c-0.3-0.9-0.7-1.6-1.2-1.9c-0.5-0.3-0.9-0.5-1.5-0.4c-0.5,0.1-1.5,0.3-2.8,0.8l-2,0.7l3.9,11.1l2.9-1l-1.8-5c0.4-0.1,0.7-0.2,0.8,0
    s0.3,0.5,0.5,1.1l1.3,3.7l2.7-0.9l-1-2.9C53.9,91.1,53.7,90.6,53.5,90.4z M49.9,89.1c-0.1,0.1-0.3,0.3-0.6,0.4L48.4,87
    c0.3-0.1,0.6-0.1,0.7-0.1c0.2,0.1,0.3,0.3,0.4,0.6l0.2,0.6C50,88.6,50,88.9,49.9,89.1z" fill="#1D1D1B"></path>
  <rect x="54.3" y="82.6" transform="matrix(0.9431 -0.3325 0.3325 0.9431 -26.2416 23.5934)" width="3.1" height="11.8" fill="#1D1D1B"></rect>
  <path d="M65.1,86.3c-0.1-0.2-0.3-0.4-0.6-0.5c-0.3-0.2-0.7-0.2-1.3-0.2c0.6-0.3,1-0.6,1.1-1c0.1-0.4,0-1-0.3-1.9
    c-0.3-0.9-0.7-1.6-1.2-1.9c-0.5-0.3-0.9-0.5-1.5-0.4c-0.5,0.1-1.5,0.3-2.8,0.8l-2,0.7l3.9,11.1l2.9-1l-1.8-5c0.4-0.1,0.7-0.2,0.8,0
    c0.1,0.1,0.3,0.5,0.5,1.1l1.3,3.7l2.7-0.9l-1-2.9C65.4,87,65.2,86.5,65.1,86.3z M61.5,85c-0.1,0.1-0.3,0.3-0.6,0.4L60,82.9
    c0.3-0.1,0.6-0.1,0.7-0.1c0.2,0.1,0.3,0.3,0.4,0.6l0.2,0.6C61.6,84.5,61.6,84.9,61.5,85z" fill="#1D1D1B"></path>
  <polygon points="70,87.2 69.1,84.8 70.9,84.1 70.2,82 68.4,82.7 67.7,80.6 69.6,79.9 68.8,77.7 64,79.4 67.9,90.4
    72.9,88.7 72.1,86.5   " fill="#1D1D1B"></polygon>
  <path d="M79.1,83.3c-0.4-1.1-0.8-1.8-1.3-2.2c-0.5-0.4-1.5-0.7-3.1-1c-0.5-0.1-0.9-0.2-1.1-0.4
    c-0.2-0.2-0.3-0.4-0.4-0.8c-0.1-0.3-0.1-0.5-0.1-0.7c0-0.2,0.1-0.3,0.3-0.4c0.2-0.1,0.3,0,0.4,0c0.1,0.1,0.2,0.3,0.4,0.7l0.3,0.8
    l2.7-0.9l-0.2-0.4c-0.3-0.9-0.6-1.5-0.9-1.8c-0.3-0.3-0.8-0.5-1.4-0.5c-0.6-0.1-1.3,0-2,0.3c-0.7,0.2-1.2,0.6-1.6,0.9
    c-0.4,0.4-0.6,0.8-0.7,1.3s0,1.1,0.3,2c0.2,0.6,0.5,1,0.7,1.4c0.3,0.3,0.6,0.6,0.9,0.7s0.9,0.3,1.8,0.5c0.9,0.2,1.4,0.4,1.7,0.5
    c0.2,0.1,0.5,0.5,0.7,1.2c0.1,0.3,0.1,0.5,0.1,0.7c0,0.2-0.2,0.3-0.3,0.4c-0.2,0.1-0.3,0.1-0.5,0c-0.1-0.1-0.2-0.3-0.4-0.8
    l-0.5-1.3l-2.7,0.9l0.3,0.7c0.3,0.8,0.6,1.4,0.9,1.8c0.3,0.4,0.8,0.6,1.5,0.7c0.6,0.1,1.4,0,2.1-0.3c0.7-0.2,1.3-0.6,1.7-1
    c0.4-0.4,0.7-0.9,0.7-1.3C79.4,84.7,79.3,84.1,79.1,83.3z" fill="#1D1D1B"></path>
</g>
<g id="pink" fill="#E7619E">
  <path d="M43,66.7c3.7-5.6,7.9-7.9,13.6-11.5c5.6-3.6,4.3-9.3,4.3-9.3c-1.1-9.5-7.7-9.6-7.7-9.6
    c-6.9-0.6-10.4,5.6-10.4,5.6c-4.5-7-10.5-5.7-10.5-5.7c-5.3,1-7.5,6.1-7.6,9.9c-0.1,3.8,0.5,7.5,7.6,11.5
    C39.3,61.6,43,66.7,43,66.7z M54.1,50.4c-0.5-0.8-1.6-1-1.6-1C53.7,48.7,54.1,50.4,54.1,50.4z M47.3,44.6c0.1-0.4,0.3-0.9,0.6-1.1
    c0.4-0.3,1.1-0.4,1.4-0.1c0.6,0.5,0.9,1.3,1,2.2c0,0.1,0.1,1.4,0.1,1.4c-1,0.1-1.9,0.7-2.8,1.3c-0.2-1-0.5-2-0.4-3
    C47.2,45.1,47.3,44.9,47.3,44.6z M36.6,44c0.9,0,1.7,1.1,1.7,2.4s-0.8,2.4-1.7,2.4s-1.7-1.1-1.7-2.4C34.9,45.1,35.7,44,36.6,44z
     M30.5,51.7c-0.2-2.3,1.9-1.8,1.9-1.8c-0.5,0.1-0.9,0.4-1.2,0.7c0.1,0.1,9.9,9.4,21.9-1c0,0-3.8,7.1-10.1,6.9
    c-6.3-0.2-9.8-3.5-11.8-5.9C30.7,51.2,30.5,51.7,30.5,51.7L30.5,51.7z" fill="#E7619E"></path>
  <polygon points="31.2,50.7 31.2,50.7 31.2,50.7  " fill="#E7619E"></polygon>
  <rect x="29.6" y="112.3" transform="matrix(0.943 -0.3327 0.3327 0.943 -35.7256 16.432)" width="0.9" height="0.5" fill="#E7619E"></rect>
  <rect x="29.3" y="112.5" transform="matrix(0.9431 -0.3324 0.3324 0.9431 -36.2235 16.3426)" width="0.7" height="3.1" fill="#E7619E"></rect>
  <polygon points="30.4,114.9 30.6,115.4 31.5,115.1 31.3,114.5  " fill="#E7619E"></polygon>
  <rect x="30.1" y="113.4" transform="matrix(0.9431 -0.3324 0.3324 0.9431 -36.0605 16.604)" width="0.9" height="0.5" fill="#E7619E"></rect>
  <polygon points="30.8,112 31.8,115 32.4,114.7 31.4,111.8  " fill="#E7619E"></polygon>
  <polygon points="32.3,111.5 33.3,114.4 34,114.2 32.9,111.3  " fill="#E7619E"></polygon>
  <polygon points="31.6,112 31.9,113 33.2,114.2 32.8,113.2  " fill="#E7619E"></polygon>
  <path d="M35,111.4l0.7-0.2c-0.2-0.5-0.6-0.7-1.3-0.5l0.2,0.5C34.8,111.1,34.9,111.2,35,111.4z" fill="#E7619E"></path>
  <path d="M35.3,113.2l0.2,0.5c0.7-0.2,0.9-0.6,0.7-1.1c-0.1-0.3-0.3-0.4-0.6-0.5c0,0,0,0-0.1,0c0,0-0.1,0-0.2,0
    c-0.1,0-0.1,0-0.2-0.1c-0.1,0-0.2,0-0.3-0.1c-0.1,0-0.2,0-0.2-0.1c-0.1,0-0.1,0-0.2,0c-0.1,0-0.1-0.1-0.2-0.2c0-0.1,0-0.2,0-0.2
    c0-0.1,0.1-0.1,0.2-0.2l-0.2-0.5c-0.6,0.2-0.9,0.6-0.7,1.1c0.1,0.2,0.3,0.4,0.6,0.5c0.2,0,0.4,0.1,0.5,0.2c0.2,0.1,0.4,0.1,0.6,0.2
    c0.1,0,0.2,0.1,0.3,0.2C35.6,113,35.5,113.1,35.3,113.2z" fill="#E7619E"></path>
  <path d="M35.3,113.8l-0.2-0.5c-0.3,0.1-0.4,0-0.5-0.3l-0.6,0.2C34.2,113.8,34.6,114,35.3,113.8z" fill="#E7619E"></path>
  <rect x="37" y="111" transform="matrix(0.9428 -0.3335 0.3335 0.9428 -34.9532 18.8558)" width="0.9" height="0.5" fill="#E7619E"></rect>
  <rect x="36.6" y="109.8" transform="matrix(0.943 -0.3329 0.3329 0.943 -34.5239 18.6135)" width="0.9" height="0.5" fill="#E7619E"></rect>
  <rect x="36.3" y="110" transform="matrix(0.9432 -0.3323 0.3323 0.9432 -35.004 18.5063)" width="0.7" height="3.1" fill="#E7619E"></rect>
  <polygon points="38.5,112.6 38.3,112.1 37.4,112.4 37.6,112.9  " fill="#E7619E"></polygon>
  <rect x="40.4" y="108.6" transform="matrix(0.9431 -0.3324 0.3324 0.9431 -34.2989 19.7963)" width="0.7" height="3.1" fill="#E7619E"></rect>
  <polygon points="40.3,112 40.3,110.2 39.8,108.8 39.6,108.9 39.8,111.1 38.6,109.3 38.4,109.3 38.9,110.6 40,112.1
    " fill="#E7619E"></polygon>
  <rect x="38.2" y="109.4" transform="matrix(0.9432 -0.3324 0.3324 0.9432 -34.6754 19.1166)" width="0.7" height="3.1" fill="#E7619E"></rect>
  <path d="M43,111c0.7-0.2,0.9-0.6,0.7-1.2c-0.1-0.2-0.2-0.3-0.3-0.4c-0.1-0.1-0.3-0.1-0.4-0.1c0.2-0.1,0.3-0.4,0.2-0.8
    c-0.2-0.5-0.6-0.7-1.3-0.4l-0.2,0.1l0.2,0.5l0.2-0.1c0.1,0,0.2,0,0.3,0s0.1,0.1,0.2,0.3c0,0.1,0,0.2,0,0.3c0,0.1-0.1,0.1-0.2,0.2
    l-0.2,0.1l0.2,0.5l0.2-0.1c0.2-0.1,0.4,0,0.5,0.3c0.1,0.2,0,0.4-0.2,0.5l-0.2,0.1l0.2,0.5L43,111z" fill="#E7619E"></path>
  <rect x="41.4" y="108.2" transform="matrix(0.9432 -0.3324 0.3324 0.9432 -34.1197 20.1139)" width="0.7" height="3.1" fill="#E7619E"></rect>
  <rect x="43.8" y="107.4" transform="matrix(0.9431 -0.3326 0.3326 0.9431 -33.7258 20.8902)" width="0.7" height="3.1" fill="#E7619E"></rect>
  <rect x="45" y="109.6" transform="matrix(0.943 -0.3329 0.3329 0.943 -33.9786 21.3887)" width="0.8" height="0.5" fill="#E7619E"></rect>
  <rect x="46" y="106.5" transform="matrix(0.943 -0.3329 0.3329 0.943 -32.8899 21.5447)" width="0.9" height="0.5" fill="#E7619E"></rect>
  <rect x="46.4" y="107.7" transform="matrix(0.9427 -0.3335 0.3335 0.9427 -33.3184 21.7952)" width="0.9" height="0.5" fill="#E7619E"></rect>
  <rect x="46.8" y="108.9" transform="matrix(0.9432 -0.3324 0.3324 0.9432 -33.607 21.9275)" width="0.9" height="0.5" fill="#E7619E"></rect>
  <rect x="45.6" y="106.7" transform="matrix(0.9432 -0.3324 0.3324 0.9432 -33.381 21.4397)" width="0.7" height="3.1" fill="#E7619E"></rect>
  <path d="M50.6,105.9c-0.2-0.5-0.6-0.7-1.3-0.4l-0.2,0.1l0.2,0.5l0.2-0.1c0.1,0,0.2,0,0.3,0s0.1,0.1,0.2,0.3
    c0,0.1,0,0.2,0,0.3c0,0.1-0.1,0.1-0.2,0.2l-0.2,0.1l0.2,0.5l0.2-0.1c0.3-0.1,0.6-0.3,0.7-0.5C50.8,106.5,50.8,106.2,50.6,105.9z" fill="#E7619E"></path>
  <rect x="48.8" y="105.6" transform="matrix(0.9434 -0.3318 0.3318 0.9434 -32.7693 22.3894)" width="0.7" height="3.1" fill="#E7619E"></rect>
  <path d="M52.8,107.6c0.7-0.2,0.9-0.7,0.7-1.2l-0.5-1.3c-0.2-0.6-0.6-0.7-1.3-0.5l0.2,0.5c0.2-0.1,0.3,0,0.4,0.2
    l0.5,1.5c0.1,0.2,0,0.3-0.2,0.4L52.8,107.6z" fill="#E7619E"></path>
  <path d="M52.6,107.7l-0.2-0.5c-0.2,0-0.3,0-0.4-0.2l-0.5-1.5c-0.1-0.2,0-0.3,0.2-0.4l-0.2-0.5
    c-0.6,0.2-0.9,0.6-0.7,1.2l0.5,1.3C51.5,107.7,52,107.9,52.6,107.7z" fill="#E7619E"></path>
  <path d="M55.1,106.8l-0.2-0.5c-0.2,0-0.3,0-0.4-0.2l-0.8-2.2l-0.7,0.2l0.7,2.1C54,106.8,54.4,107,55.1,106.8z" fill="#E7619E"></path>
  <path d="M55.9,105.5l-0.7-2.1l-0.7,0.2l0.8,2.2c0,0.1,0,0.2,0,0.3c0,0.1-0.1,0.1-0.2,0.2l0.2,0.5
    C55.8,106.5,56.1,106.1,55.9,105.5z" fill="#E7619E"></path>
  <path d="M58.5,105.4c0,0,0-0.1-0.1-0.1l-0.2-0.6c-0.1-0.3-0.3-0.5-0.6-0.5c0.1-0.1,0.2-0.2,0.2-0.3s0-0.3-0.1-0.5
    c-0.2-0.5-0.6-0.7-1.3-0.4l-0.2,0.1l0.2,0.5l0.2-0.1c0.1,0,0.2,0,0.3,0s0.1,0.1,0.2,0.3c0,0.1,0,0.2,0,0.3c0,0.1-0.1,0.1-0.2,0.2
    l-0.2,0.1l0.2,0.5l0.2-0.1c0.2-0.1,0.4,0,0.4,0.3l0.2,0.7c0,0.1,0.1,0.2,0.1,0.2L58.5,105.4C58.6,105.5,58.5,105.5,58.5,105.4z" fill="#E7619E"></path>
  <rect x="56" y="103.1" transform="matrix(0.9432 -0.3323 0.3323 0.9432 -31.5712 24.6633)" width="0.7" height="3.1" fill="#E7619E"></rect>
  <rect x="60.8" y="104" transform="matrix(0.943 -0.3329 0.3329 0.943 -31.2208 26.3348)" width="0.8" height="0.5" fill="#E7619E"></rect>
  <polygon points="59.1,102 60.1,105 60.8,104.7 59.8,101.8  " fill="#E7619E"></polygon>
  <rect x="61.4" y="101.2" transform="matrix(0.9431 -0.3324 0.3324 0.9431 -30.6306 26.3815)" width="0.7" height="3.1" fill="#E7619E"></rect>
  <rect x="61.8" y="100.9" transform="matrix(0.943 -0.3329 0.3329 0.943 -30.1322 26.4913)" width="0.9" height="0.5" fill="#E7619E"></rect>
  <rect x="62.2" y="102.1" transform="matrix(0.9425 -0.3342 0.3342 0.9425 -30.6062 26.8162)" width="0.9" height="0.5" fill="#E7619E"></rect>
  <rect x="62.6" y="103.4" transform="matrix(0.9426 -0.334 0.334 0.9426 -30.9857 27.0281)" width="0.9" height="0.5" fill="#E7619E"></rect>
  <path d="M63.2,101.4c0.1,0.2,0.3,0.4,0.6,0.5c0.2,0,0.4,0.1,0.5,0.2c0.2,0.1,0.4,0.1,0.6,0.2c0.1,0,0.2,0.1,0.3,0.2
    c0,0.1,0,0.3-0.2,0.4l0.2,0.5c0.7-0.2,0.9-0.6,0.7-1.1c-0.1-0.3-0.3-0.4-0.6-0.5c0,0,0,0-0.1,0c0,0-0.1,0-0.2,0
    c-0.1,0-0.1,0-0.2-0.1c-0.1,0-0.2-0.1-0.3-0.1c-0.1,0-0.2,0-0.2-0.1c-0.1,0-0.1,0-0.2,0c-0.1,0-0.1-0.1-0.2-0.2c0-0.1,0-0.2,0-0.2
    c0-0.1,0.1-0.1,0.2-0.2l-0.2-0.5C63.2,100.5,63,100.9,63.2,101.4z" fill="#E7619E"></path>
  <path d="M64.6,101l0.7-0.2c-0.2-0.5-0.6-0.7-1.3-0.5l0.2,0.5C64.4,100.7,64.5,100.8,64.6,101z" fill="#E7619E"></path>
  <path d="M64.9,103.3l-0.2-0.5c-0.2,0.1-0.4,0-0.5-0.3l-0.7,0.2C63.8,103.4,64.2,103.6,64.9,103.3z" fill="#E7619E"></path>
  <rect x="67.5" y="98.9" transform="matrix(0.943 -0.3329 0.3329 0.943 -29.1432 28.265)" width="0.9" height="0.5" fill="#E7619E"></rect>
  <rect x="67.1" y="99.2" transform="matrix(0.9431 -0.3324 0.3324 0.9431 -29.6432 28.1526)" width="0.7" height="3.1" fill="#E7619E"></rect>
  <rect x="67.9" y="100.1" transform="matrix(0.9427 -0.3335 0.3335 0.9427 -29.564 28.5315)" width="0.9" height="0.5" fill="#E7619E"></rect>
  <rect x="68.3" y="101.4" transform="matrix(0.9429 -0.3332 0.3332 0.9429 -29.9297 28.7228)" width="0.9" height="0.5" fill="#E7619E"></rect>
  <polygon points="69.7,99.7 71,100.9 70.6,99.9 69.4,98.7   " fill="#E7619E"></polygon>
  <polygon points="70.1,98.2 71.1,101.1 71.8,100.9 70.7,97.9  " fill="#E7619E"></polygon>
  <polygon points="68.6,98.7 69.6,101.6 70.2,101.4 69.2,98.5  " fill="#E7619E"></polygon>
  <rect x="71.6" y="97.6" transform="matrix(0.9431 -0.3324 0.3324 0.9431 -28.8618 29.5548)" width="0.7" height="3.1" fill="#E7619E"></rect>
  <rect x="72.4" y="98.5" transform="matrix(0.9436 -0.3312 0.3312 0.9436 -28.6083 29.6874)" width="0.9" height="0.5" fill="#E7619E"></rect>
  <rect x="71.9" y="97.3" transform="matrix(0.9428 -0.3335 0.3335 0.9428 -28.4054 29.7362)" width="0.9" height="0.5" fill="#E7619E"></rect>
  <polygon points="73.4,97 73.7,100.2 74.4,100 74.1,97.5 74.7,98.6 74.3,98.7 74.4,99.2 75,99 75.3,99.6 76,99.4
    74.3,96.7   " fill="#E7619E"></polygon>
  <polygon points="76.4,97.3 77.6,98.6 77.3,97.6 76,96.3  " fill="#E7619E"></polygon>
  <rect x="75.7" y="96.1" transform="matrix(0.9432 -0.3321 0.3321 0.9432 -28.131 30.7972)" width="0.7" height="3.1" fill="#E7619E"></rect>
  <polygon points="76.7,95.8 77.8,98.7 78.4,98.5 77.4,95.6  " fill="#E7619E"></polygon>
  <rect x="78.9" y="95.7" transform="matrix(0.9432 -0.3321 0.3321 0.9432 -27.6818 31.8311)" width="0.7" height="2.5" fill="#E7619E"></rect>
  <rect x="77.6" y="95.1" transform="matrix(0.943 -0.3329 0.3329 0.943 -27.2555 31.6509)" width="2.2" height="0.5" fill="#E7619E"></rect>
  <path d="M81.6,95l0.7-0.2c-0.2-0.5-0.6-0.7-1.3-0.5l0.2,0.5C81.4,94.7,81.6,94.8,81.6,95z" fill="#E7619E"></path>
  <path d="M82.2,95.6C82.2,95.6,82.2,95.6,82.2,95.6c-0.1,0-0.2,0-0.2-0.1c-0.1,0-0.1,0-0.2-0.1c-0.1,0-0.2,0-0.3-0.1
    c-0.1,0-0.2,0-0.3-0.1c-0.1,0-0.1,0-0.2,0c-0.1,0-0.1-0.1-0.2-0.2c0-0.1,0-0.2,0-0.2c0-0.1,0.1-0.1,0.2-0.2l-0.2-0.5
    c-0.6,0.2-0.9,0.6-0.7,1.1c0.1,0.2,0.3,0.4,0.6,0.5c0.2,0,0.4,0.1,0.5,0.2c0.2,0.1,0.4,0.1,0.6,0.2c0.1,0,0.2,0.1,0.3,0.2
    c0,0.1,0,0.3-0.2,0.4l0.2,0.5c0.7-0.2,0.9-0.6,0.7-1.1C82.8,95.9,82.6,95.7,82.2,95.6z" fill="#E7619E"></path>
  <path d="M81.3,96.5l-0.6,0.2c0.2,0.6,0.7,0.8,1.4,0.6l-0.2-0.5C81.5,96.9,81.4,96.8,81.3,96.5z" fill="#E7619E"></path>
  <rect x="36.7" y="115.1" transform="matrix(0.9431 -0.3324 0.3324 0.9431 -36.6658 18.9528)" width="0.7" height="3.1" fill="#E7619E"></rect>
  <polygon points="34.1,116.1 35.1,119 35.7,118.8 34.7,115.8  " fill="#E7619E"></polygon>
  <polygon points="36.2,115.3 36,115.4 36.2,117.6 35,115.7 34.8,115.8 35.2,117.1 36.3,118.6 36.6,118.5 36.6,116.7
    " fill="#E7619E"></polygon>
  <polygon points="37.8,114.7 38.1,117.9 38.8,117.7 38.5,115.2 39.1,116.3 38.8,116.5 38.8,117 39.4,116.8 39.8,117.4
    40.5,117.1 38.7,114.4   " fill="#E7619E"></polygon>
  <polygon points="41.3,116.3 41.5,116.8 42.3,116.5 42.1,116  " fill="#E7619E"></polygon>
  <polygon points="39.6,114.1 40.7,117 41.3,116.8 40.3,113.9  " fill="#E7619E"></polygon>
  <polygon points="42.1,113.2 42.3,116.4 43,116.2 42.7,113.7 43.4,114.8 43,115 43.1,115.5 43.6,115.3 44,115.9
    44.7,115.6 42.9,112.9   " fill="#E7619E"></polygon>
  <rect x="44.4" y="112.4" transform="matrix(0.9431 -0.3324 0.3324 0.9431 -35.3332 21.3445)" width="0.7" height="3.1" fill="#E7619E"></rect>
  <path d="M46.2,112.7c-0.2-0.6-0.6-0.7-1.2-0.5l-0.3,0.1l0.2,0.5l0.2-0.1c0.1,0,0.2-0.1,0.3,0c0.1,0,0.1,0.1,0.2,0.2
    l0.5,1.4c0,0.1,0,0.2,0,0.2c0,0.1-0.1,0.1-0.2,0.2l-0.2,0.1l0.2,0.5l0.3-0.1c0.6-0.2,0.8-0.6,0.7-1.2L46.2,112.7z" fill="#E7619E"></path>
  <rect x="46.8" y="111.5" transform="matrix(0.9431 -0.3324 0.3324 0.9431 -34.912 22.1006)" width="0.7" height="3.1" fill="#E7619E"></rect>
  <rect x="47.1" y="111.3" transform="matrix(0.9424 -0.3346 0.3346 0.9424 -34.5885 22.359)" width="0.9" height="0.5" fill="#E7619E"></rect>
  <rect x="47.5" y="112.5" transform="matrix(0.9434 -0.3318 0.3318 0.9434 -34.6886 22.3075)" width="0.9" height="0.5" fill="#E7619E"></rect>
  <rect x="48" y="113.7" transform="matrix(0.9426 -0.334 0.334 0.9426 -35.2924 22.73)" width="0.9" height="0.5" fill="#E7619E"></rect>
  <path d="M50,111.4l0.7-0.2c-0.2-0.5-0.6-0.7-1.3-0.5l0.2,0.5C49.7,111.1,49.9,111.2,50,111.4z" fill="#E7619E"></path>
  <path d="M49.6,112.9l-0.6,0.2c0.2,0.6,0.7,0.8,1.4,0.6l-0.2-0.5C49.8,113.3,49.7,113.2,49.6,112.9z" fill="#E7619E"></path>
  <path d="M51.2,112.6c-0.1-0.3-0.3-0.4-0.6-0.5c0,0,0,0-0.1,0c0,0-0.1,0-0.2,0c-0.1,0-0.1,0-0.2-0.1
    c-0.1,0-0.2,0-0.3-0.1c-0.1,0-0.2,0-0.3-0.1s-0.1,0-0.2,0c-0.1,0-0.1-0.1-0.2-0.2c0-0.1,0-0.2,0-0.2c0-0.1,0.1-0.1,0.2-0.2
    l-0.2-0.5c-0.6,0.2-0.9,0.6-0.7,1.1c0.1,0.2,0.3,0.4,0.6,0.5c0.2,0,0.4,0.1,0.5,0.2c0.2,0.1,0.4,0.1,0.6,0.2c0.1,0,0.2,0.1,0.3,0.2
    c0,0.1,0,0.3-0.2,0.4l0.2,0.5C51.1,113.4,51.3,113,51.2,112.6L51.2,112.6z" fill="#E7619E"></path>
  <path d="M54.3,109.8c-0.2-0.6-0.6-0.7-1.3-0.5l0.2,0.5c0.2-0.1,0.3,0,0.4,0.2l0.5,1.5c0.1,0.2,0,0.3-0.2,0.4l0.2,0.5
    c0.7-0.2,0.9-0.7,0.7-1.2L54.3,109.8z" fill="#E7619E"></path>
  <path d="M53.4,111.7l-0.5-1.5c-0.1-0.2,0-0.3,0.2-0.4l-0.2-0.5c-0.6,0.2-0.9,0.6-0.7,1.2l0.5,1.3
    c0.2,0.6,0.6,0.8,1.3,0.6l-0.2-0.5C53.6,112,53.5,111.9,53.4,111.7z" fill="#E7619E"></path>
  <path d="M56.5,108.2l-0.7,0.2l0.8,2.2c0,0.1,0,0.2,0,0.3c0,0.1-0.1,0.1-0.2,0.2l0.2,0.5c0.7-0.2,0.9-0.7,0.7-1.2
    L56.5,108.2z" fill="#E7619E"></path>
  <path d="M55.8,110.9l-0.8-2.2l-0.7,0.2l0.7,2.1c0.2,0.6,0.6,0.8,1.3,0.6l-0.2-0.5C56,111.1,55.9,111.1,55.8,110.9z" fill="#E7619E"></path>
  <polygon points="59.4,107.1 59.8,108.3 59.3,108.5 59.5,109 60,108.8 60.5,110.1 61.1,109.8 60.1,106.9  " fill="#E7619E"></polygon>
  <rect x="58.6" y="107.4" transform="matrix(0.943 -0.3328 0.3328 0.943 -32.8936 25.819)" width="0.7" height="3.1" fill="#E7619E"></rect>
  <polygon points="61.1,106.5 61.4,109.7 62,109.5 61.7,107 62.4,108.1 62,108.3 62.1,108.8 62.7,108.6 63,109.2
    63.7,108.9 61.9,106.2   " fill="#E7619E"></polygon>
  <polygon points="63.7,105.9 64,106.9 65.3,108.1 64.9,107.1  " fill="#E7619E"></polygon>
  <polygon points="64.4,105.4 65.4,108.3 66.1,108.1 65,105.1  " fill="#E7619E"></polygon>
  <rect x="63.4" y="105.7" transform="matrix(0.9431 -0.3325 0.3325 0.9431 -32.0357 27.285)" width="0.7" height="3.1" fill="#E7619E"></rect>
  <path d="M67.8,105.1c-0.2-0.6-0.6-0.7-1.2-0.5l-0.3,0.1l0.2,0.5l0.2-0.1c0.1,0,0.2-0.1,0.3,0c0.1,0,0.1,0.1,0.2,0.2
    l0.5,1.4c0,0.1,0,0.2,0,0.2c0,0.1-0.1,0.1-0.3,0.2l-0.2,0.1l0.2,0.5l0.3-0.1c0.6-0.2,0.8-0.6,0.7-1.2L67.8,105.1z" fill="#E7619E"></path>
  <rect x="65.9" y="104.8" transform="matrix(0.9431 -0.3324 0.3324 0.9431 -31.5839 28.0734)" width="0.7" height="3.1" fill="#E7619E"></rect>
  <rect x="68.3" y="103.9" transform="matrix(0.9432 -0.3321 0.3321 0.9432 -31.1408 28.8063)" width="0.7" height="3.1" fill="#E7619E"></rect>
  <path d="M70,103.3l0.2,0.5c0.2-0.1,0.3,0,0.4,0.2l0.1,0.3l0.7-0.2l-0.1-0.3C71,103.3,70.6,103.1,70,103.3z" fill="#E7619E"></path>
  <path d="M70.4,105.8l-0.5-1.5c-0.1-0.2,0-0.3,0.2-0.4l-0.2-0.5c-0.6,0.3-0.9,0.6-0.7,1.1l0.5,1.4
    c0.2,0.6,0.6,0.7,1.3,0.5l-0.2-0.5C70.5,106,70.4,105.9,70.4,105.8z" fill="#E7619E"></path>
  <path d="M71.6,104.9l-0.7,0.2l0.1,0.4c0.1,0.2,0,0.3-0.2,0.4l0.2,0.5c0.7-0.2,0.9-0.6,0.7-1.2L71.6,104.9z" fill="#E7619E"></path>
  <polygon points="71.9,102.7 72.2,105.9 72.9,105.7 72.6,103.2 73.2,104.3 72.8,104.5 72.9,105 73.5,104.8 73.8,105.3
    74.5,105.1 72.8,102.4   " fill="#E7619E"></polygon>
  <path d="M74.7,101.7l-0.2,0.1l0.2,0.5l0.2-0.1c0.1,0,0.2,0,0.3,0c0.1,0,0.1,0.1,0.2,0.3c0,0.1,0,0.2,0,0.3
    c0,0.1-0.1,0.1-0.2,0.2l-0.2,0.1l0.2,0.5l0.2-0.1c0.3-0.1,0.6-0.3,0.7-0.5c0.1-0.2,0.1-0.5,0-0.8C75.8,101.6,75.4,101.5,74.7,101.7
    z" fill="#E7619E"></path>
  <rect x="74.2" y="101.9" transform="matrix(0.9431 -0.3325 0.3325 0.9431 -30.1469 30.6727)" width="0.7" height="3.1" fill="#E7619E"></rect>
  <rect x="76.8" y="100.8" transform="matrix(0.9428 -0.3333 0.3333 0.9428 -29.2784 31.5488)" width="0.9" height="0.5" fill="#E7619E"></rect>
  <polygon points="76.2,100.9 76.7,100.8 77.2,100.1 76.4,100.4  " fill="#E7619E"></polygon>
  <rect x="77.2" y="102" transform="matrix(0.9429 -0.333 0.333 0.9429 -29.621 31.7044)" width="0.9" height="0.5" fill="#E7619E"></rect>
  <rect x="76.5" y="101.1" transform="matrix(0.9431 -0.3324 0.3324 0.9431 -29.7438 31.3776)" width="0.7" height="3.1" fill="#E7619E"></rect>
  <rect x="77.7" y="103.3" transform="matrix(0.9432 -0.3324 0.3324 0.9432 -29.9677 31.863)" width="0.9" height="0.5" fill="#E7619E"></rect>
  <path d="M79.2,100.6c0.2,0,0.3,0,0.4,0.2l0.7-0.2c-0.2-0.5-0.6-0.7-1.3-0.5L79.2,100.6z" fill="#E7619E"></path>
  <path d="M79.3,102.4l-0.6,0.2c0.2,0.6,0.7,0.8,1.4,0.6l-0.2-0.5C79.5,102.8,79.4,102.7,79.3,102.4z" fill="#E7619E"></path>
  <path d="M80.9,102.1c-0.1-0.3-0.3-0.4-0.6-0.5c0,0,0,0-0.1,0c0,0-0.1,0-0.2,0c-0.1,0-0.1,0-0.2-0.1
    c-0.1,0-0.2,0-0.3-0.1c-0.1,0-0.2,0-0.3-0.1c-0.1,0-0.1,0-0.2,0c-0.1,0-0.1-0.1-0.2-0.2c0-0.1,0-0.2,0-0.2c0-0.1,0.1-0.1,0.2-0.2
    l-0.2-0.5c-0.6,0.2-0.9,0.6-0.7,1.1c0.1,0.2,0.3,0.4,0.6,0.5c0.2,0,0.4,0.1,0.5,0.2c0.2,0.1,0.4,0.1,0.6,0.2c0.1,0,0.2,0.1,0.3,0.2
    c0,0.1,0,0.3-0.2,0.4l0.2,0.5C80.8,102.9,81,102.6,80.9,102.1L80.9,102.1z" fill="#E7619E"></path>
  <path d="M83.9,29.7c0,0,0,0.1,0.1,0.1C83.9,29.8,83.9,29.7,83.9,29.7z" fill="#E7619E"></path>
  <path d="M4,36.4C4,36.4,4,36.4,4,36.4c0,0.1,0,0.1,0,0.2L4,36.4z" fill="#E7619E"></path>
  <polygon points="29,3.3 29,3.3 29.2,3.2   " fill="#E7619E"></polygon>
  <path d="M86.7,44.1c0-0.7,0-1.2,0.1-1.3c-0.1-1.7-0.3-3.8-0.6-5.7c-0.1-0.5-0.2-0.9-0.3-1.4c-0.1-0.4-0.2-0.9-0.3-1.2
    c-0.1-0.4-0.2-0.8-0.3-1.1c-0.1-0.3-0.2-0.6-0.4-0.9l0.1,0.1c-0.6-1.1-0.5-1.5-1.1-2.8c0-0.1,0-0.2,0-0.2c-0.7-1.2-1.5-3.7-2.1-4.6
    l0.1-0.1c-0.2-0.4-0.4-0.8-0.6-1.2l-0.7-1.2l0.5,0.9c-0.3-0.1-0.5-0.5-0.7-1.2c-0.2-0.3-0.3-0.7-0.6-1.1c-0.2-0.4-0.5-0.8-0.8-1.1
    c-0.3-0.4-0.6-0.7-0.9-1.1c-0.3-0.3-0.7-0.6-1.1-0.9c-0.7-0.6-1.5-1.2-2-2c-0.7-0.5,0.8,0.4-0.3-0.5c0.1-0.2,0.5,0.4,0.4,0
    c-0.5-0.4-0.8-0.9-1.2-1.3c-0.4-0.5-0.8-0.9-1.5-1.4l0.1-0.2c-0.4-0.3-0.9-0.6-1.2-1c-0.4-0.3-0.7-0.7-1.1-1
    c-0.7-0.6-1.3-1.2-2-1.5c-1.9-1.1-1-1.2-3.1-2.2l-0.7-0.6c-0.9-0.5-0.7-0.1-1.7-0.7c0.1-0.1-1.2-0.7-0.6-0.5
    C61.6,5,61,4.7,60.4,4.5c-0.3-0.1-0.6-0.2-0.9-0.4c-0.3-0.1-0.6-0.2-1-0.3c-0.3-0.1-0.7-0.2-1-0.3c-0.3-0.1-0.7-0.2-1-0.3
    c-0.4-0.1-0.7-0.2-1.1-0.4c-0.4-0.1-0.8-0.2-1.1-0.4c-0.8,0.1-2.3-0.4-2.9-0.3c-0.1-0.1-3.3-0.5-1.4-0.5c0.2,0,0.4,0.1,0.4,0.1
    l0.2-0.1c-0.5-0.1-0.9-0.2-1.3-0.3c-0.4,0-0.9-0.1-1.3-0.1c-0.9,0-1.7,0-2.6,0c0.5,0.1,1.3,0.1,0.8,0.2c-0.6,0-1.1-0.1-1.7-0.1
    l0.4-0.1C43.9,1,43.1,1,42.2,1l0.4,0.2c-0.6,0-1.1-0.1-1.5-0.1c-0.4,0-0.9,0-1.6,0.2c-0.6,0.2,1.2,0.1-0.1,0.3
    c-1.7,0.1-4.2,0.2-6.3,0.8c0.2,0.1-0.3,0.3-0.9,0.5L32,2.6c-2.1,0.8-0.9-0.1-3,0.8l-0.3,0.3c-0.9,0.5-1.2,0.5-1.5,0.6
    c-0.3,0-0.6,0.1-1.6,0.8c0.8-0.4,0.5,0.2-0.5,0.5l0.2-0.3c-0.5,0.3-0.7,0.4-1.1,0.6c0.3-0.2,0.1-0.3-0.7,0.1L24,5.6
    c-0.5,0.3-0.9,0.7-1.4,1c-1.2,0.5-2.9,1.8-3.4,1.9c0,0-0.6,0.4-1.2,0.8c-0.6,0.5-1.3,1-1.5,1.3c0.4-0.5-0.9,0.5-0.7,0
    c-0.2,0.3-0.7,0.8-1.3,1.4c-0.5,0.5-1.1,1-1.5,1.3l0.1-0.1c-1.2,1.1-2.1,2.1-2.9,3.2c-0.4,0.5-0.8,1.1-1.2,1.6
    c-0.2,0.3-0.4,0.5-0.6,0.8c-0.2,0.3-0.4,0.6-0.6,0.8c0.2,0-0.7,1.2-0.3,1c-0.4,0.7-0.7,1.3-1.1,1.8c-0.4,0.6-0.7,1.1-1,1.5
    c-0.3,0.5-0.5,0.9-0.7,1.3c-0.1,0.4-0.2,0.8-0.2,1.1c-0.5,1.2-0.8,1.4-1.1,2l0.1-0.3C2.8,30.5,2.6,31.2,2,33
    c-0.1,0.5,0,0.7-0.1,1.1c0,0.4,0,0.8-0.3,1.6c0-0.6-0.1,0.1-0.3,0.7c0.1-0.4,0-0.5-0.2,0.3c0,0.1,0,0.3,0,0.5c0,0,0,0,0,0
    c-0.1,1,0,0.9,0.1,0.4c0,0,0,0,0.1-0.1c-0.4,1-0.4,3-0.6,3.1c-0.2,3.1,0.1,5.4,0.4,7.9c-0.1,0.3-0.3-0.3-0.4-1
    c0.1,0.6,0.1,1.2,0.2,1.8c-0.2,0-0.2-1-0.3-1.6c0,0.6,0,1.1,0.1,1.7c0.1,0.6,0.2,1.1,0.3,1.7c0.1,0.6,0.3,1.2,0.4,1.8
    c0.1,0.6,0.3,1.2,0.3,1.9C2,54.8,2,55,2.1,55.2l0,0.2c0,0,0,0.2,0.1,0.5l-0.1-0.5c0.1,0,0.3,0.5,0.4,0.9c0,0.4-0.4,0.1,0,1.3
    C2.7,58,3,58.7,3.3,59.3c0.3,0.7,0.7,1.4,1,2c-0.3-0.7-0.1-0.5,0.1-0.2c0.3,0.6,0.3,1,0.5,1.4l-0.2,0.1c0.1-0.3,0.9,1.4,1.1,1.6
    c0,0.4-0.6-0.8-0.7-0.9C5.7,64.4,5.8,64.7,6,65c0.2,0.3,0.3,0.6,1,1.7c0.9,1.1,0-0.3,0.5,0.1c0.3,0.5,0.7,1,1.1,1.5
    c0.4,0.5,0.7,1,1.1,1.6c0-0.1-0.1-0.3-0.1-0.5c1.5,1.7,2.3,2.7,3.2,3.9c0.4,0.3,0.8,0.7,1.1,1c0.4,0.3,0.7,0.5,1,0.8
    c0.6,0.5,1.2,0.9,1.8,1.2c0.3,0.2,0.5,0.3,0.7,0.5c0.2,0.1,0.4,0.2,0.6,0.3c0.4,0.2,0.7,0.4,1,0.5c1,0.4,1.1,0.2,0.7-0.3
    c-0.2-0.2-0.5-0.5-0.8-0.9c-0.3-0.3-0.7-0.7-1-1c-0.3-0.3-0.6-0.6-0.9-0.8c-0.2-0.2-0.4-0.4-0.4-0.4c-2.2-2.3-3.7-4-5.3-5.9
    c-1.6-2-3.2-4.1-4.8-7.5h0c-1.3-3-1.7-5.1-2.1-7.1c-0.4-2.1-0.8-4.1-1-7.5c0-0.4,0-0.8,0-1.2c0-0.4,0-0.8,0-1.2
    c0-0.8,0.1-1.7,0.1-2.5c0-0.4,0.1-0.8,0.1-1.2c0-0.4,0.1-0.8,0.1-1.2C3.8,38,3.9,37.2,4,36.4c0-0.4,0.1-0.8,0.2-1.3
    c0.1-0.5,0.2-1,0.4-1.5c0.1-0.5,0.3-1,0.5-1.5c0.1-0.3,0.1-0.5,0.2-0.7c0.1-0.2,0.1-0.5,0.2-0.7L5.8,30c0.1-0.6,0.4-1.3,0.7-1.8
    l0,0.1C6.6,27.8,6.8,27.4,7,27c0.2-0.4,0.3-0.7,0.4-0.9l0,0.1c0.1-0.3,0.3-0.7,0.5-1l0,0.2c0.2-0.4,0.3-0.7,0.5-1.1
    c0.2-0.4,0.4-0.7,0.6-1c0.2-0.3,0.4-0.7,0.6-1c0.2-0.3,0.4-0.6,0.7-0.9l-0.2,0c0.5-0.6,0.9-1.1,1.2-1.6c0.4-0.5,0.6-0.9,1-1.3
    c0.3-0.4,0.6-0.8,1-1.2c0.4-0.4,0.8-0.8,1.3-1.3l0,0.1c0.5-0.7,1.1-1.3,1.6-1.8c0.6-0.5,1.1-0.9,1.7-1.3c0.3-0.2,0.6-0.4,0.9-0.6
    c0.1-0.1,0.3-0.2,0.4-0.3c0.2-0.1,0.3-0.2,0.5-0.3c0.3-0.2,0.6-0.5,1-0.7c0.3-0.3,0.7-0.5,1-0.8c-0.4,0.3,0.2,0,0.2,0
    c1.4-1,3-1.8,2.8-2.1c1.1-0.6,1-0.4,1.2-0.3c-0.1-0.1,0.9-0.6,1.8-1l-0.4,0.2c0.4-0.2,0.8-0.4,1.3-0.5c0.4-0.2,0.8-0.4,1.3-0.5
    c-0.2,0-0.4-0.1-0.6-0.1c1.4-0.4,0.5,0.2,1.8-0.3L31,5.1c2-0.6,3.2-0.5,5.2-0.6c1-0.2,2-0.3,3-0.4c0.5,0,1-0.1,1.5-0.1
    c0.5-0.1,1-0.1,1.6-0.1c2.1-0.1,4.2-0.1,6.2,0.1c2.1,0.2,4.1,0.6,6,1.1c1.9,0.6,3.8,1.3,5.5,2.1l0.2,0.3c0,0.3,2.1,0.5,2.2,0.9
    l0.8,0.3c0.2,0.2,0.6,0.5,0.2,0.3c0.7,0.4,0.7,0.4,1.3,0.6l0.6,0.6c0.7,0.5,1.3,0.9,1.9,1.3c0.6,0.4,1.2,0.9,1.8,1.3
    c0.6,0.5,1.2,0.9,1.8,1.4c0.6,0.5,1.2,1,1.8,1.7c1.3,1.6,3.2,3.8,4.8,6.2c1.7,2.4,3.1,5.1,4,7.1c1.3,2.8,2.1,6.2,2.4,9.5
    c0.2,1.7,0.2,3.4,0.2,5c0,1.7-0.1,3.3-0.1,4.9c-0.1,0.2,0,0.7,0,0.7c-0.3,1.9-0.6,3.8-1.2,5.7c0,0-0.1,0.4-0.3,1.1
    c-0.1,0.3-0.2,0.8-0.4,1.2c-0.2,0.5-0.3,1-0.5,1.5c-0.8,2.2-2,4.7-3.1,6.7c-0.3,0.5-0.5,0.9-0.7,1.3c-0.2,0.4-0.4,0.7-0.5,1
    c-0.3,0.6-0.3,0.9-0.1,0.8c0.2-0.1,0.8-0.5,1.7-1.5c0.9-1,2.2-2.5,3.6-5l0,0.2c0.4-0.7,0.7-1.4,1-2.1c0.3-0.6,0.5-1.3,0.7-1.8
    c0.2-0.6,0.3-1.2,0.5-1.7c0.1-0.3,0.1-0.6,0.2-0.8c0-0.3,0.1-0.6,0.1-0.9c0.2-0.1,0.4-0.8,0.6-1.5c0.1-0.7,0.2-1.5,0.4-1.9l0,0.1
    c0.1-2,0.8-4.2,0.6-6.1c0,0.1,0.1,0.1,0.1,0.6C86.7,45.6,86.6,44.8,86.7,44.1z" fill="#E7619E"></path>
</g>
</g>
</svg>