<svg xmlns="http://www.w3.org/2000/svg" xmlns:xlink="http://www.w3.org/1999/xlink" width="161.969" height="162.089" viewBox="0 0 161.969 162.089">
  <defs>
    <clipPath id="clip-path">
      <rect width="161.969" height="162.089" fill="none"/>
    </clipPath>
  </defs>
  <g id="Grille_de_répétition_1" data-name="Grille de répétition 1" opacity="0.41" clip-path="url(#clip-path)">
    <g transform="translate(-919 -243)">
      <circle id="Ellipse_3" data-name="Ellipse 3" cx="3" cy="3" r="3" transform="translate(919 243)" fill="#aaa"/>
    </g>
    <g transform="translate(-901 -243)">
      <circle id="Ellipse_3-2" data-name="Ellipse 3" cx="3" cy="3" r="3" transform="translate(919 243)" fill="#aaa"/>
    </g>
    <g transform="translate(-883 -243)">
      <circle id="Ellipse_3-3" data-name="Ellipse 3" cx="3" cy="3" r="3" transform="translate(919 243)" fill="#aaa"/>
    </g>
    <g transform="translate(-865 -243)">
      <circle id="Ellipse_3-4" data-name="Ellipse 3" cx="3" cy="3" r="3" transform="translate(919 243)" fill="#aaa"/>
    </g>
    <g transform="translate(-847 -243)">
      <circle id="Ellipse_3-5" data-name="Ellipse 3" cx="3" cy="3" r="3" transform="translate(919 243)" fill="#aaa"/>
    </g>
    <g transform="translate(-829 -243)">
      <circle id="Ellipse_3-6" data-name="Ellipse 3" cx="3" cy="3" r="3" transform="translate(919 243)" fill="#aaa"/>
    </g>
    <g transform="translate(-811 -243)">
      <circle id="Ellipse_3-7" data-name="Ellipse 3" cx="3" cy="3" r="3" transform="translate(919 243)" fill="#aaa"/>
    </g>
    <g transform="translate(-793 -243)">
      <circle id="Ellipse_3-8" data-name="Ellipse 3" cx="3" cy="3" r="3" transform="translate(919 243)" fill="#aaa"/>
    </g>
    <g transform="translate(-775 -243)">
      <circle id="Ellipse_3-9" data-name="Ellipse 3" cx="3" cy="3" r="3" transform="translate(919 243)" fill="#aaa"/>
    </g>
    <g transform="translate(-919 -225)">
      <circle id="Ellipse_3-10" data-name="Ellipse 3" cx="3" cy="3" r="3" transform="translate(919 243)" fill="#aaa"/>
    </g>
    <g transform="translate(-901 -225)">
      <circle id="Ellipse_3-11" data-name="Ellipse 3" cx="3" cy="3" r="3" transform="translate(919 243)" fill="#aaa"/>
    </g>
    <g transform="translate(-883 -225)">
      <circle id="Ellipse_3-12" data-name="Ellipse 3" cx="3" cy="3" r="3" transform="translate(919 243)" fill="#aaa"/>
    </g>
    <g transform="translate(-865 -225)">
      <circle id="Ellipse_3-13" data-name="Ellipse 3" cx="3" cy="3" r="3" transform="translate(919 243)" fill="#aaa"/>
    </g>
    <g transform="translate(-847 -225)">
      <circle id="Ellipse_3-14" data-name="Ellipse 3" cx="3" cy="3" r="3" transform="translate(919 243)" fill="#aaa"/>
    </g>
    <g transform="translate(-829 -225)">
      <circle id="Ellipse_3-15" data-name="Ellipse 3" cx="3" cy="3" r="3" transform="translate(919 243)" fill="#aaa"/>
    </g>
    <g transform="translate(-811 -225)">
      <circle id="Ellipse_3-16" data-name="Ellipse 3" cx="3" cy="3" r="3" transform="translate(919 243)" fill="#aaa"/>
    </g>
    <g transform="translate(-793 -225)">
      <circle id="Ellipse_3-17" data-name="Ellipse 3" cx="3" cy="3" r="3" transform="translate(919 243)" fill="#aaa"/>
    </g>
    <g transform="translate(-775 -225)">
      <circle id="Ellipse_3-18" data-name="Ellipse 3" cx="3" cy="3" r="3" transform="translate(919 243)" fill="#aaa"/>
    </g>
    <g transform="translate(-919 -207)">
      <circle id="Ellipse_3-19" data-name="Ellipse 3" cx="3" cy="3" r="3" transform="translate(919 243)" fill="#aaa"/>
    </g>
    <g transform="translate(-901 -207)">
      <circle id="Ellipse_3-20" data-name="Ellipse 3" cx="3" cy="3" r="3" transform="translate(919 243)" fill="#aaa"/>
    </g>
    <g transform="translate(-883 -207)">
      <circle id="Ellipse_3-21" data-name="Ellipse 3" cx="3" cy="3" r="3" transform="translate(919 243)" fill="#aaa"/>
    </g>
    <g transform="translate(-865 -207)">
      <circle id="Ellipse_3-22" data-name="Ellipse 3" cx="3" cy="3" r="3" transform="translate(919 243)" fill="#aaa"/>
    </g>
    <g transform="translate(-847 -207)">
      <circle id="Ellipse_3-23" data-name="Ellipse 3" cx="3" cy="3" r="3" transform="translate(919 243)" fill="#aaa"/>
    </g>
    <g transform="translate(-829 -207)">
      <circle id="Ellipse_3-24" data-name="Ellipse 3" cx="3" cy="3" r="3" transform="translate(919 243)" fill="#aaa"/>
    </g>
    <g transform="translate(-811 -207)">
      <circle id="Ellipse_3-25" data-name="Ellipse 3" cx="3" cy="3" r="3" transform="translate(919 243)" fill="#aaa"/>
    </g>
    <g transform="translate(-793 -207)">
      <circle id="Ellipse_3-26" data-name="Ellipse 3" cx="3" cy="3" r="3" transform="translate(919 243)" fill="#aaa"/>
    </g>
    <g transform="translate(-775 -207)">
      <circle id="Ellipse_3-27" data-name="Ellipse 3" cx="3" cy="3" r="3" transform="translate(919 243)" fill="#aaa"/>
    </g>
    <g transform="translate(-919 -189)">
      <circle id="Ellipse_3-28" data-name="Ellipse 3" cx="3" cy="3" r="3" transform="translate(919 243)" fill="#aaa"/>
    </g>
    <g transform="translate(-901 -189)">
      <circle id="Ellipse_3-29" data-name="Ellipse 3" cx="3" cy="3" r="3" transform="translate(919 243)" fill="#aaa"/>
    </g>
    <g transform="translate(-883 -189)">
      <circle id="Ellipse_3-30" data-name="Ellipse 3" cx="3" cy="3" r="3" transform="translate(919 243)" fill="#aaa"/>
    </g>
    <g transform="translate(-865 -189)">
      <circle id="Ellipse_3-31" data-name="Ellipse 3" cx="3" cy="3" r="3" transform="translate(919 243)" fill="#aaa"/>
    </g>
    <g transform="translate(-847 -189)">
      <circle id="Ellipse_3-32" data-name="Ellipse 3" cx="3" cy="3" r="3" transform="translate(919 243)" fill="#aaa"/>
    </g>
    <g transform="translate(-829 -189)">
      <circle id="Ellipse_3-33" data-name="Ellipse 3" cx="3" cy="3" r="3" transform="translate(919 243)" fill="#aaa"/>
    </g>
    <g transform="translate(-811 -189)">
      <circle id="Ellipse_3-34" data-name="Ellipse 3" cx="3" cy="3" r="3" transform="translate(919 243)" fill="#aaa"/>
    </g>
    <g transform="translate(-793 -189)">
      <circle id="Ellipse_3-35" data-name="Ellipse 3" cx="3" cy="3" r="3" transform="translate(919 243)" fill="#aaa"/>
    </g>
    <g transform="translate(-775 -189)">
      <circle id="Ellipse_3-36" data-name="Ellipse 3" cx="3" cy="3" r="3" transform="translate(919 243)" fill="#aaa"/>
    </g>
    <g transform="translate(-919 -171)">
      <circle id="Ellipse_3-37" data-name="Ellipse 3" cx="3" cy="3" r="3" transform="translate(919 243)" fill="#aaa"/>
    </g>
    <g transform="translate(-901 -171)">
      <circle id="Ellipse_3-38" data-name="Ellipse 3" cx="3" cy="3" r="3" transform="translate(919 243)" fill="#aaa"/>
    </g>
    <g transform="translate(-883 -171)">
      <circle id="Ellipse_3-39" data-name="Ellipse 3" cx="3" cy="3" r="3" transform="translate(919 243)" fill="#aaa"/>
    </g>
    <g transform="translate(-865 -171)">
      <circle id="Ellipse_3-40" data-name="Ellipse 3" cx="3" cy="3" r="3" transform="translate(919 243)" fill="#aaa"/>
    </g>
    <g transform="translate(-847 -171)">
      <circle id="Ellipse_3-41" data-name="Ellipse 3" cx="3" cy="3" r="3" transform="translate(919 243)" fill="#aaa"/>
    </g>
    <g transform="translate(-829 -171)">
      <circle id="Ellipse_3-42" data-name="Ellipse 3" cx="3" cy="3" r="3" transform="translate(919 243)" fill="#aaa"/>
    </g>
    <g transform="translate(-811 -171)">
      <circle id="Ellipse_3-43" data-name="Ellipse 3" cx="3" cy="3" r="3" transform="translate(919 243)" fill="#aaa"/>
    </g>
    <g transform="translate(-793 -171)">
      <circle id="Ellipse_3-44" data-name="Ellipse 3" cx="3" cy="3" r="3" transform="translate(919 243)" fill="#aaa"/>
    </g>
    <g transform="translate(-775 -171)">
      <circle id="Ellipse_3-45" data-name="Ellipse 3" cx="3" cy="3" r="3" transform="translate(919 243)" fill="#aaa"/>
    </g>
    <g transform="translate(-919 -153)">
      <circle id="Ellipse_3-46" data-name="Ellipse 3" cx="3" cy="3" r="3" transform="translate(919 243)" fill="#aaa"/>
    </g>
    <g transform="translate(-901 -153)">
      <circle id="Ellipse_3-47" data-name="Ellipse 3" cx="3" cy="3" r="3" transform="translate(919 243)" fill="#aaa"/>
    </g>
    <g transform="translate(-883 -153)">
      <circle id="Ellipse_3-48" data-name="Ellipse 3" cx="3" cy="3" r="3" transform="translate(919 243)" fill="#aaa"/>
    </g>
    <g transform="translate(-865 -153)">
      <circle id="Ellipse_3-49" data-name="Ellipse 3" cx="3" cy="3" r="3" transform="translate(919 243)" fill="#aaa"/>
    </g>
    <g transform="translate(-847 -153)">
      <circle id="Ellipse_3-50" data-name="Ellipse 3" cx="3" cy="3" r="3" transform="translate(919 243)" fill="#aaa"/>
    </g>
    <g transform="translate(-829 -153)">
      <circle id="Ellipse_3-51" data-name="Ellipse 3" cx="3" cy="3" r="3" transform="translate(919 243)" fill="#aaa"/>
    </g>
    <g transform="translate(-811 -153)">
      <circle id="Ellipse_3-52" data-name="Ellipse 3" cx="3" cy="3" r="3" transform="translate(919 243)" fill="#aaa"/>
    </g>
    <g transform="translate(-793 -153)">
      <circle id="Ellipse_3-53" data-name="Ellipse 3" cx="3" cy="3" r="3" transform="translate(919 243)" fill="#aaa"/>
    </g>
    <g transform="translate(-775 -153)">
      <circle id="Ellipse_3-54" data-name="Ellipse 3" cx="3" cy="3" r="3" transform="translate(919 243)" fill="#aaa"/>
    </g>
    <g transform="translate(-919 -135)">
      <circle id="Ellipse_3-55" data-name="Ellipse 3" cx="3" cy="3" r="3" transform="translate(919 243)" fill="#aaa"/>
    </g>
    <g transform="translate(-901 -135)">
      <circle id="Ellipse_3-56" data-name="Ellipse 3" cx="3" cy="3" r="3" transform="translate(919 243)" fill="#aaa"/>
    </g>
    <g transform="translate(-883 -135)">
      <circle id="Ellipse_3-57" data-name="Ellipse 3" cx="3" cy="3" r="3" transform="translate(919 243)" fill="#aaa"/>
    </g>
    <g transform="translate(-865 -135)">
      <circle id="Ellipse_3-58" data-name="Ellipse 3" cx="3" cy="3" r="3" transform="translate(919 243)" fill="#aaa"/>
    </g>
    <g transform="translate(-847 -135)">
      <circle id="Ellipse_3-59" data-name="Ellipse 3" cx="3" cy="3" r="3" transform="translate(919 243)" fill="#aaa"/>
    </g>
    <g transform="translate(-829 -135)">
      <circle id="Ellipse_3-60" data-name="Ellipse 3" cx="3" cy="3" r="3" transform="translate(919 243)" fill="#aaa"/>
    </g>
    <g transform="translate(-811 -135)">
      <circle id="Ellipse_3-61" data-name="Ellipse 3" cx="3" cy="3" r="3" transform="translate(919 243)" fill="#aaa"/>
    </g>
    <g transform="translate(-793 -135)">
      <circle id="Ellipse_3-62" data-name="Ellipse 3" cx="3" cy="3" r="3" transform="translate(919 243)" fill="#aaa"/>
    </g>
    <g transform="translate(-775 -135)">
      <circle id="Ellipse_3-63" data-name="Ellipse 3" cx="3" cy="3" r="3" transform="translate(919 243)" fill="#aaa"/>
    </g>
    <g transform="translate(-919 -117)">
      <circle id="Ellipse_3-64" data-name="Ellipse 3" cx="3" cy="3" r="3" transform="translate(919 243)" fill="#aaa"/>
    </g>
    <g transform="translate(-901 -117)">
      <circle id="Ellipse_3-65" data-name="Ellipse 3" cx="3" cy="3" r="3" transform="translate(919 243)" fill="#aaa"/>
    </g>
    <g transform="translate(-883 -117)">
      <circle id="Ellipse_3-66" data-name="Ellipse 3" cx="3" cy="3" r="3" transform="translate(919 243)" fill="#aaa"/>
    </g>
    <g transform="translate(-865 -117)">
      <circle id="Ellipse_3-67" data-name="Ellipse 3" cx="3" cy="3" r="3" transform="translate(919 243)" fill="#aaa"/>
    </g>
    <g transform="translate(-847 -117)">
      <circle id="Ellipse_3-68" data-name="Ellipse 3" cx="3" cy="3" r="3" transform="translate(919 243)" fill="#aaa"/>
    </g>
    <g transform="translate(-829 -117)">
      <circle id="Ellipse_3-69" data-name="Ellipse 3" cx="3" cy="3" r="3" transform="translate(919 243)" fill="#aaa"/>
    </g>
    <g transform="translate(-811 -117)">
      <circle id="Ellipse_3-70" data-name="Ellipse 3" cx="3" cy="3" r="3" transform="translate(919 243)" fill="#aaa"/>
    </g>
    <g transform="translate(-793 -117)">
      <circle id="Ellipse_3-71" data-name="Ellipse 3" cx="3" cy="3" r="3" transform="translate(919 243)" fill="#aaa"/>
    </g>
    <g transform="translate(-775 -117)">
      <circle id="Ellipse_3-72" data-name="Ellipse 3" cx="3" cy="3" r="3" transform="translate(919 243)" fill="#aaa"/>
    </g>
    <g transform="translate(-919 -99)">
      <circle id="Ellipse_3-73" data-name="Ellipse 3" cx="3" cy="3" r="3" transform="translate(919 243)" fill="#aaa"/>
    </g>
    <g transform="translate(-901 -99)">
      <circle id="Ellipse_3-74" data-name="Ellipse 3" cx="3" cy="3" r="3" transform="translate(919 243)" fill="#aaa"/>
    </g>
    <g transform="translate(-883 -99)">
      <circle id="Ellipse_3-75" data-name="Ellipse 3" cx="3" cy="3" r="3" transform="translate(919 243)" fill="#aaa"/>
    </g>
    <g transform="translate(-865 -99)">
      <circle id="Ellipse_3-76" data-name="Ellipse 3" cx="3" cy="3" r="3" transform="translate(919 243)" fill="#aaa"/>
    </g>
    <g transform="translate(-847 -99)">
      <circle id="Ellipse_3-77" data-name="Ellipse 3" cx="3" cy="3" r="3" transform="translate(919 243)" fill="#aaa"/>
    </g>
    <g transform="translate(-829 -99)">
      <circle id="Ellipse_3-78" data-name="Ellipse 3" cx="3" cy="3" r="3" transform="translate(919 243)" fill="#aaa"/>
    </g>
    <g transform="translate(-811 -99)">
      <circle id="Ellipse_3-79" data-name="Ellipse 3" cx="3" cy="3" r="3" transform="translate(919 243)" fill="#aaa"/>
    </g>
    <g transform="translate(-793 -99)">
      <circle id="Ellipse_3-80" data-name="Ellipse 3" cx="3" cy="3" r="3" transform="translate(919 243)" fill="#aaa"/>
    </g>
    <g transform="translate(-775 -99)">
      <circle id="Ellipse_3-81" data-name="Ellipse 3" cx="3" cy="3" r="3" transform="translate(919 243)" fill="#aaa"/>
    </g>
    <g transform="translate(-919 -81)">
      <circle id="Ellipse_3-82" data-name="Ellipse 3" cx="3" cy="3" r="3" transform="translate(919 243)" fill="#aaa"/>
    </g>
    <g transform="translate(-901 -81)">
      <circle id="Ellipse_3-83" data-name="Ellipse 3" cx="3" cy="3" r="3" transform="translate(919 243)" fill="#aaa"/>
    </g>
    <g transform="translate(-883 -81)">
      <circle id="Ellipse_3-84" data-name="Ellipse 3" cx="3" cy="3" r="3" transform="translate(919 243)" fill="#aaa"/>
    </g>
    <g transform="translate(-865 -81)">
      <circle id="Ellipse_3-85" data-name="Ellipse 3" cx="3" cy="3" r="3" transform="translate(919 243)" fill="#aaa"/>
    </g>
    <g transform="translate(-847 -81)">
      <circle id="Ellipse_3-86" data-name="Ellipse 3" cx="3" cy="3" r="3" transform="translate(919 243)" fill="#aaa"/>
    </g>
    <g transform="translate(-829 -81)">
      <circle id="Ellipse_3-87" data-name="Ellipse 3" cx="3" cy="3" r="3" transform="translate(919 243)" fill="#aaa"/>
    </g>
    <g transform="translate(-811 -81)">
      <circle id="Ellipse_3-88" data-name="Ellipse 3" cx="3" cy="3" r="3" transform="translate(919 243)" fill="#aaa"/>
    </g>
    <g transform="translate(-793 -81)">
      <circle id="Ellipse_3-89" data-name="Ellipse 3" cx="3" cy="3" r="3" transform="translate(919 243)" fill="#aaa"/>
    </g>
    <g transform="translate(-775 -81)">
      <circle id="Ellipse_3-90" data-name="Ellipse 3" cx="3" cy="3" r="3" transform="translate(919 243)" fill="#aaa"/>
    </g>
  </g>
</svg>
