<svg xmlns="http://www.w3.org/2000/svg" width="904.828" height="947.089" viewBox="0 0 904.828 947.089">
  <g id="Groupe_1622" data-name="Groupe 1622" transform="translate(-72.529 -54.392)" opacity="0.6">
    <g id="Groupe_744" data-name="Groupe 744" transform="matrix(-0.469, 0.883, -0.883, -0.469, 1031.891, 346.152)" opacity="0.15">
      <path id="blob_5_" data-name="blob (5)" d="M473.475,639.871c41.5-55.336,60.973-116.309,100.938-195.215,39.453-78.906,99.4-175.745,86.08-260.286S560.58,27.583,466.816,6.576c-94.277-20.495-195.728,9.735-284.369,51.75C93.293,100.341,16.949,154.141,2.6,222.8S36.419,374.974,69.211,443.12c32.792,68.658,50.213,122.97,87.1,179.331S249.054,737.735,309,741.834C368.438,745.933,431.973,695.72,473.475,639.871Z" transform="matrix(-0.087, -0.996, 0.996, -0.087, 57.731, 724.543)" fill="none" stroke="#41a890" stroke-width="4"/>
      <path id="blob_5_2" data-name="blob (5)" d="M335.491,453.395c29.408-39.21,43.2-82.413,71.522-138.324,27.955-55.91,70.433-124.528,60.994-184.432S397.211,19.545,330.772,4.66c-66.8-14.522-138.687,6.9-201.5,36.669C66.1,71.1,12.009,109.22,1.844,157.869S25.805,265.7,49.041,313.982c23.235,48.649,35.579,87.133,61.719,127.069s65.713,81.687,108.19,84.591C261.065,528.547,306.084,492.968,335.491,453.395Z" transform="matrix(-0.087, -0.996, 0.996, -0.087, 121.506, 626.844)" fill="none" stroke="#41a890" stroke-width="4"/>
      <path id="blob_5_3" data-name="blob (5)" d="M188.972,255.384c16.564-22.086,24.335-46.421,40.286-77.914,15.746-31.493,39.673-70.143,34.356-103.885s-39.877-62.576-77.3-70.961C148.687-5.555,108.2,6.51,72.818,23.279,37.235,40.048,6.765,61.52,1.039,88.923s13.5,60.736,26.585,87.934c13.088,27.4,20.041,49.079,34.765,71.574s37.014,46.012,60.94,47.648C147.05,297.715,172.408,277.674,188.972,255.384Z" transform="matrix(-0.087, -0.996, 0.996, -0.087, 211.789, 522.801)" fill="none" stroke="#41a890" stroke-width="4"/>
    </g>
  </g>
</svg>
