<svg xmlns="http://www.w3.org/2000/svg" width="315.739" height="313.802" viewBox="0 0 315.739 313.802">
  <g id="Groupe_730" data-name="Groupe 730" transform="translate(-810.449 -433.413)">
    <path id="Tracé_1375" data-name="Tracé 1375" d="M193.514,204c28.116-26.282,61.086-49.651,68.545-80.571s-10.536-69.333-38.653-93.3S157.052-3.4,123.253,1.062C89.513,5.581,60.213,24.073,37.543,48.1,14.813,72.059-1.228,101.493.074,129.618c1.3,28.066,20.066,54.824,42.737,81.106,22.73,26.282,49.366,52.029,74.345,50.364C142.135,259.364,165.4,230.287,193.514,204Z" transform="matrix(0.974, -0.225, 0.225, 0.974, 810.449, 492.744)" fill="#9cd2c7" opacity="0.6"/>
    <path id="Tracé_1376" data-name="Tracé 1376" d="M147.578,154.873c21.442-19.952,46.586-37.693,52.274-61.167s-8.035-52.635-29.477-70.827S119.771-2.58,94,.806C68.265,4.237,45.92,18.276,28.631,36.513,11.3,54.7-.937,77.05.056,98.4c.993,21.307,15.3,41.62,32.592,61.573,17.334,19.952,37.648,39.5,56.7,38.235C108.4,196.9,126.136,174.826,147.578,154.873Z" transform="translate(1033.338 694.18) rotate(-166)" fill="#26a189"/>
    <path id="foursquare-check-in" d="M0,68.464,28.618,97.137l54.952-54.9-7.889-7.78L28.618,81.467,7.78,60.629Z" transform="translate(917.952 518.863)" fill="#fff"/>
  </g>
</svg>
