<svg xmlns="http://www.w3.org/2000/svg" width="44.38" height="49.519" viewBox="0 0 44.38 49.519">
  <path id="Tracé_1092" data-name="Tracé 1092" d="M42.711,47.585a1.934,1.934,0,0,1-1.934,1.934H34.307a7.746,7.746,0,0,1-7.737-7.737V7.737A7.746,7.746,0,0,1,34.307,0H58.089a7.746,7.746,0,0,1,7.737,7.737v11.9a1.934,1.934,0,1,1-3.869,0V7.737a3.873,3.873,0,0,0-3.869-3.869H34.307a3.873,3.873,0,0,0-3.869,3.869V41.782a3.873,3.873,0,0,0,3.869,3.869h6.469A1.934,1.934,0,0,1,42.711,47.585ZM56.155,11.606H36.231a1.934,1.934,0,1,0,0,3.869H56.155a1.934,1.934,0,1,0,0-3.869Zm1.934,9.672a1.934,1.934,0,0,0-1.934-1.934H36.231a1.934,1.934,0,1,0,0,3.869H56.155A1.934,1.934,0,0,0,58.089,21.278Zm-21.858,5.8a1.934,1.934,0,1,0,0,3.869h12.1a1.934,1.934,0,0,0,0-3.869Zm33.022,9.133-10.6,10.578a1.934,1.934,0,0,1-.85.5L50,49.449a1.934,1.934,0,0,1-2.367-2.426l2.313-7.614a1.935,1.935,0,0,1,.485-.807l10.62-10.6a5.8,5.8,0,0,1,8.205,8.208Zm-5.847.37-2.736-2.736L53.5,41l-1.149,3.784,3.928-1.088Zm3.112-5.841a1.936,1.936,0,0,0-2.736,0l-.374.373,2.736,2.736.375-.374A1.936,1.936,0,0,0,66.517,30.742Z" transform="translate(-26.57)" fill="#009175"/>
</svg>
