<svg xmlns="http://www.w3.org/2000/svg" width="64.232" height="64.231" viewBox="0 0 64.232 64.231">
  <g id="Groupe_653" data-name="Groupe 653" transform="translate(-245.998 -592.769) rotate(-90)">
    <path id="Tracé_1036" data-name="Tracé 1036" d="M-534.08,438a2.919,2.919,0,0,0-2.92,2.92V452.6a2.919,2.919,0,0,0,2.92,2.92,2.919,2.919,0,0,0,2.92-2.92V440.92a2.919,2.919,0,0,0-2.92-2.92Zm0,0" transform="translate(-90.804 -145.288)" fill="#fff"/>
    <path id="Tracé_1037" data-name="Tracé 1037" d="M-639.482,368.92A2.919,2.919,0,0,0-642.4,366H-654.08a2.919,2.919,0,0,0-2.92,2.92,2.919,2.919,0,0,0,2.92,2.92H-642.4a2.919,2.919,0,0,0,2.92-2.92Zm0,0" transform="translate(0 -90.805)" fill="#fff"/>
    <path id="Tracé_1038" data-name="Tracé 1038" d="M-450.4,366H-462.08a2.919,2.919,0,0,0-2.92,2.92,2.919,2.919,0,0,0,2.92,2.92H-450.4a2.919,2.919,0,0,0,2.92-2.92A2.919,2.919,0,0,0-450.4,366Zm0,0" transform="translate(-145.286 -90.805)" fill="#fff"/>
    <path id="Tracé_1039" data-name="Tracé 1039" d="M-612.74,417.765-621,426.023a2.922,2.922,0,0,0,0,4.13,2.913,2.913,0,0,0,2.065.854,2.913,2.913,0,0,0,2.064-.854l8.258-8.258a2.921,2.921,0,0,0,0-4.129,2.919,2.919,0,0,0-4.129,0Zm0,0" transform="translate(-26.596 -129.329)" fill="#fff"/>
    <path id="Tracé_1040" data-name="Tracé 1040" d="M-483.17,295.244a2.909,2.909,0,0,0,2.064-.855l8.258-8.258a2.92,2.92,0,0,0,0-4.129,2.92,2.92,0,0,0-4.129,0l-8.258,8.258a2.919,2.919,0,0,0,0,4.129,2.91,2.91,0,0,0,2.064.855Zm0,0" transform="translate(-129.328 -26.597)" fill="#fff"/>
    <path id="Tracé_1041" data-name="Tracé 1041" d="M-481.106,417.767a2.919,2.919,0,0,0-4.129,0,2.918,2.918,0,0,0,0,4.129l8.258,8.258a2.91,2.91,0,0,0,2.064.855,2.909,2.909,0,0,0,2.064-.855,2.919,2.919,0,0,0,0-4.129Zm0,0" transform="translate(-129.328 -129.33)" fill="#fff"/>
    <path id="Tracé_1042" data-name="Tracé 1042" d="M-534.081,263.516a2.919,2.919,0,0,0,2.92-2.92V248.918a2.919,2.919,0,0,0-2.92-2.92,2.919,2.919,0,0,0-2.92,2.92V260.6a2.919,2.919,0,0,0,2.92,2.92Zm0,0" transform="translate(-90.803 0)" fill="#fff"/>
    <path id="Tracé_1043" data-name="Tracé 1043" d="M-612.739,294.388a2.919,2.919,0,0,0,4.128,0,2.918,2.918,0,0,0,0-4.128L-616.868,282a2.911,2.911,0,0,0-2.064-.855A2.909,2.909,0,0,0-621,282a2.919,2.919,0,0,0,0,4.129Zm0,0" transform="translate(-26.596 -26.596)" fill="#fff"/>
  </g>
</svg>
