<svg id="Groupe_742" data-name="Groupe 742" xmlns="http://www.w3.org/2000/svg" width="61" height="61" viewBox="0 0 61 61">
  <path id="Tracé_1095" data-name="Tracé 1095" d="M79.4,79.4a1.787,1.787,0,0,0,0-2.527l-5.055-5.055a1.787,1.787,0,0,0-2.527,2.527L76.873,79.4A1.787,1.787,0,0,0,79.4,79.4Z" transform="translate(-62.8 -62.8)" fill="#009175"/>
  <path id="Tracé_1096" data-name="Tracé 1096" d="M9.055,241H1.787a1.787,1.787,0,0,0,0,3.574H9.055a1.787,1.787,0,0,0,0-3.574Z" transform="translate(0 -212.287)" fill="#009175"/>
  <path id="Tracé_1097" data-name="Tracé 1097" d="M430.055,241h-7.268a1.787,1.787,0,0,0,0,3.574h7.268a1.787,1.787,0,0,0,0-3.574Z" transform="translate(-370.842 -212.287)" fill="#009175"/>
  <path id="Tracé_1098" data-name="Tracé 1098" d="M376.385,71.818a1.787,1.787,0,0,0-2.527,0L368.8,76.873A1.787,1.787,0,1,0,371.33,79.4l5.055-5.055A1.787,1.787,0,0,0,376.385,71.818Z" transform="translate(-324.402 -62.8)" fill="#009175"/>
  <path id="Tracé_1099" data-name="Tracé 1099" d="M241,1.787V9.055a1.787,1.787,0,0,0,3.574,0V1.787a1.787,1.787,0,0,0-3.574,0Z" transform="translate(-212.287)" fill="#009175"/>
  <path id="Tracé_1100" data-name="Tracé 1100" d="M147.1,124.516a16.2,16.2,0,0,0-13.838-3.032,15.9,15.9,0,0,0-11.735,11.56,16.141,16.141,0,0,0,4.32,15.56,8.393,8.393,0,0,1,2.325,6v.384a5.349,5.349,0,0,0,1.787,3.992v3.276a5.367,5.367,0,0,0,5.361,5.361h3.574a5.367,5.367,0,0,0,5.361-5.361v-3.276a5.348,5.348,0,0,0,1.787-3.992V154.6a8.689,8.689,0,0,1,2.45-6.119,16.085,16.085,0,0,0-1.393-23.965Zm-6.418,37.743a1.789,1.789,0,0,1-1.787,1.787h-3.574a1.789,1.789,0,0,1-1.787-1.787v-1.906h7.148Zm5.281-16.3a12.287,12.287,0,0,0-3.494,8.644v.391a1.789,1.789,0,0,1-1.787,1.787h-1.787V145.829a7.161,7.161,0,0,0,5.361-6.922,1.787,1.787,0,0,0-3.574,0,3.574,3.574,0,1,1-7.148,0,1.787,1.787,0,0,0-3.574,0,7.162,7.162,0,0,0,5.361,6.922v10.949h-1.787a1.789,1.789,0,0,1-1.787-1.787v-.384a11.979,11.979,0,0,0-3.4-8.555,12.6,12.6,0,0,1-3.353-12.15,12.3,12.3,0,0,1,9.077-8.937,13.235,13.235,0,0,1,3.007-.349,12.506,12.506,0,0,1,8.883,21.34Z" transform="translate(-106.606 -106.62)" fill="#009175"/>
</svg>
