<svg xmlns="http://www.w3.org/2000/svg" width="27.556" height="20.667" viewBox="0 0 27.556 20.667">
  <path id="Tracé_43" data-name="Tracé 43" d="M515.972,240H493.583A2.586,2.586,0,0,0,491,242.583v15.5a2.586,2.586,0,0,0,2.583,2.583h22.389a2.586,2.586,0,0,0,2.583-2.583v-15.5A2.586,2.586,0,0,0,515.972,240Zm0,1.722a.857.857,0,0,1,.33.067l-11.524,9.988-11.525-9.988a.857.857,0,0,1,.33-.067Zm0,17.222H493.583a.862.862,0,0,1-.861-.861V243.608l11.491,9.959a.862.862,0,0,0,1.129,0l11.491-9.959v14.475a.862.862,0,0,1-.861.861Zm0,0" transform="translate(-491 -240)" fill="#8a8a8a"/>
</svg>
