<svg xmlns="http://www.w3.org/2000/svg" width="702.066" height="356.306" viewBox="0 0 702.066 356.306">
  <g id="Groupe_1246" data-name="Groupe 1246" transform="translate(-140 -1239.684)">
    <ellipse id="Ellipse_374" data-name="Ellipse 374" cx="349.082" cy="3.784" rx="349.082" ry="3.784" transform="translate(140 1588.422)" fill="#ededed"/>
    <g id="Groupe_1233" data-name="Groupe 1233" transform="translate(298.365 1347.25)">
      <path id="Tracé_491" data-name="Tracé 491" d="M469.653,463.578c-6.582.421-13.755-.025-21.385,0V446.109a77.142,77.142,0,0,0,21.385,0Z" transform="translate(-442.909 -420.386)" fill="#e6e6e6"/>
      <circle id="Ellipse_375" data-name="Ellipse 375" cx="16.077" cy="16.077" r="16.077" fill="#e6e6e6"/>
      <circle id="Ellipse_376" data-name="Ellipse 376" cx="12.861" cy="12.861" r="12.861" transform="translate(3.215 3.215)" fill="#fff"/>
      <circle id="Ellipse_377" data-name="Ellipse 377" cx="3.215" cy="3.215" r="3.215" transform="translate(12.861 12.861)" fill="#e6e6e6"/>
      <rect id="Rectangle_670" data-name="Rectangle 670" width="12.861" height="1.608" transform="translate(14.469 15.273)" fill="#e6e6e6"/>
      <rect id="Rectangle_671" data-name="Rectangle 671" width="1.608" height="12.861" transform="translate(15.273 4.823)" fill="#e6e6e6"/>
    </g>
    <g id="Groupe_1234" data-name="Groupe 1234" transform="translate(608.96 1346.752)">
      <rect id="Rectangle_672" data-name="Rectangle 672" width="10.637" height="42.105" transform="translate(50.191 0.174)" fill="#e6e6e6"/>
      <rect id="Rectangle_673" data-name="Rectangle 673" width="10.637" height="4.875" transform="translate(50.191 6.822)" fill="#ccc"/>
      <rect id="Rectangle_674" data-name="Rectangle 674" width="10.637" height="4.875" transform="translate(50.191 28.097)" fill="#ccc"/>
      <rect id="Rectangle_675" data-name="Rectangle 675" width="10.637" height="42.105" transform="translate(33.792 0.174)" fill="#e6e6e6"/>
      <rect id="Rectangle_676" data-name="Rectangle 676" width="10.637" height="4.875" transform="translate(33.792 6.822)" fill="#ccc"/>
      <rect id="Rectangle_677" data-name="Rectangle 677" width="10.637" height="4.875" transform="translate(33.792 28.097)" fill="#ccc"/>
      <rect id="Rectangle_678" data-name="Rectangle 678" width="10.637" height="42.105" transform="translate(16.399 0.174)" fill="#e6e6e6"/>
      <rect id="Rectangle_679" data-name="Rectangle 679" width="10.637" height="4.875" transform="translate(16.399 6.822)" fill="#ccc"/>
      <rect id="Rectangle_680" data-name="Rectangle 680" width="10.637" height="4.875" transform="translate(16.399 28.097)" fill="#ccc"/>
      <rect id="Rectangle_681" data-name="Rectangle 681" width="10.637" height="42.105" transform="translate(0 0.174)" fill="#e6e6e6"/>
      <rect id="Rectangle_682" data-name="Rectangle 682" width="10.637" height="4.875" transform="translate(0 6.822)" fill="#ccc"/>
      <rect id="Rectangle_683" data-name="Rectangle 683" width="10.637" height="4.875" transform="translate(0 28.097)" fill="#ccc"/>
      <rect id="Rectangle_684" data-name="Rectangle 684" width="10.637" height="42.105" transform="translate(60.46 4.72) rotate(-26.34)" fill="#e6e6e6"/>
      <rect id="Rectangle_685" data-name="Rectangle 685" width="10.637" height="4.875" transform="translate(63.41 10.678) rotate(-26.34)" fill="#ccc"/>
      <rect id="Rectangle_686" data-name="Rectangle 686" width="10.637" height="4.875" transform="translate(72.849 29.743) rotate(-26.34)" fill="#ccc"/>
    </g>
    <rect id="Rectangle_687" data-name="Rectangle 687" width="145.514" height="188.714" transform="translate(573.236 1401.494)" fill="#e6e6e6"/>
    <rect id="Rectangle_688" data-name="Rectangle 688" width="7.579" height="178.862" transform="translate(269.323 1411.345)" fill="#e6e6e6"/>
    <rect id="Rectangle_689" data-name="Rectangle 689" width="518.395" height="15.158" transform="translate(200.355 1388.609)" fill="#e6e6e6"/>
    <rect id="Rectangle_690" data-name="Rectangle 690" width="15.158" height="15.158" transform="translate(265.534 1403.767)" fill="#e6e6e6"/>
    <path id="Tracé_492" data-name="Tracé 492" d="M803.7,485.862l-.853,3.411H781.628l-1.279-3.411H726.3v34.863H858.175V485.862Z" transform="translate(-146.246 926.621)" fill="#747474"/>
    <path id="Tracé_493" data-name="Tracé 493" d="M803.7,530.09l-.853,3.41H781.628l-1.279-3.41H726.3v34.863H858.175V530.09Z" transform="translate(-146.246 926.351)" fill="#747474"/>
    <path id="Tracé_494" data-name="Tracé 494" d="M803.7,574.319l-.853,3.41H781.628l-1.279-3.41H726.3v34.863H858.175V574.319Z" transform="translate(-146.246 926.079)" fill="#747474"/>
    <path id="Tracé_495" data-name="Tracé 495" d="M803.7,618.547l-.853,3.41H781.628l-1.279-3.41H726.3V653.41H858.175V618.547Z" transform="translate(-146.246 925.808)" fill="#747474"/>
    <path id="Tracé_496" data-name="Tracé 496" d="M626.9,459.433H582.18l1.515-19.7h41.684Z" transform="translate(-145.364 926.903)" fill="#e6e6e6"/>
    <rect id="Rectangle_691" data-name="Rectangle 691" width="50.021" height="4.547" transform="translate(434.542 1384.062)" fill="#e6e6e6"/>
    <path id="Tracé_497" data-name="Tracé 497" d="M689.764,312H518.86a4.547,4.547,0,0,0-4.547,4.547h0v104.21h180V316.547A4.547,4.547,0,0,0,689.764,312Z" transform="translate(-144.949 927.684)" fill="#747474"/>
    <path id="Tracé_498" data-name="Tracé 498" d="M514.313,421.427v17.052a4.547,4.547,0,0,0,4.547,4.547h170.9a4.547,4.547,0,0,0,4.547-4.547h0V421.427Z" transform="translate(-144.949 927.015)" fill="#e6e6e6"/>
    <rect id="Rectangle_692" data-name="Rectangle 692" width="162.188" height="90.947" transform="translate(378.458 1249.158)" fill="#fff"/>
    <circle id="Ellipse_378" data-name="Ellipse 378" cx="4.547" cy="4.547" r="4.547" transform="translate(455.006 1354.504)" fill="#747474" opacity="0.7"/>
    <rect id="Rectangle_693" data-name="Rectangle 693" width="43.731" height="2.51" transform="translate(431.054 1274.829)" fill="#747474"/>
    <rect id="Rectangle_694" data-name="Rectangle 694" width="67.53" height="2.51" transform="translate(431.054 1283.988)" fill="#5ab39e"/>
    <rect id="Rectangle_695" data-name="Rectangle 695" width="55.035" height="2.51" transform="translate(431.054 1292.615)" fill="#5ab39e"/>
    <rect id="Rectangle_696" data-name="Rectangle 696" width="32.129" height="2.51" transform="translate(431.054 1301.208)" fill="#747474"/>
    <rect id="Rectangle_697" data-name="Rectangle 697" width="48.491" height="2.51" transform="translate(431.054 1309.803)" fill="#747474"/>
    <rect id="Rectangle_698" data-name="Rectangle 698" width="5.355" height="5.355" transform="translate(411.122 1273.938)" fill="#747474"/>
    <rect id="Rectangle_699" data-name="Rectangle 699" width="5.355" height="5.355" transform="translate(411.122 1282.565)" fill="#5ab39e"/>
    <rect id="Rectangle_700" data-name="Rectangle 700" width="5.355" height="5.355" transform="translate(411.122 1291.192)" fill="#5ab39e"/>
    <rect id="Rectangle_701" data-name="Rectangle 701" width="5.355" height="5.355" transform="translate(411.122 1299.819)" fill="#747474"/>
    <rect id="Rectangle_702" data-name="Rectangle 702" width="5.355" height="5.355" transform="translate(411.122 1308.446)" fill="#747474"/>
    <g id="Groupe_1245" data-name="Groupe 1245" transform="translate(743.611 1433.764)">
      <g id="Groupe_1235" data-name="Groupe 1235" transform="translate(0 75.147)">
        <path id="Tracé_499" data-name="Tracé 499" d="M921.924,586.53c-5.673-3.339-12.53-4.115-19.075-3.4-3.516.382-7.207,1.221-9.723,3.706S889.9,593.9,892.5,596.3c1.545,1.429,3.794,1.758,5.9,1.851,5.08.225,10.763-.356,14.648,2.925,2.217,1.871,3.6,4.854,6.315,5.866,2.66.989,5.8-.438,7.374-2.8a11.2,11.2,0,0,0,1.273-8.2A12.613,12.613,0,0,0,921.924,586.53Z" transform="translate(-890.864 -582.884)" fill="#88c8b9"/>
      </g>
      <g id="Groupe_1236" data-name="Groupe 1236" transform="translate(23.883)">
        <path id="Tracé_500" data-name="Tracé 500" d="M936.893,560.978c-3.856,4.9-10.7,2.826-13.749-.467s-4.154-7.882-5.153-12.256c-2.282-9.99-4.56-20.465-1.9-30.361a16.783,16.783,0,0,1,4.308-7.986,8.771,8.771,0,0,1,8.451-2.3c3.449,1.12,5.433,4.669,6.823,8.019a72,72,0,0,1,5.386,31.252c-.259,4.97-1.136,10.15-4.168,14.1" transform="translate(-914.893 -507.274)" fill="#ff4f5b"/>
      </g>
      <g id="Groupe_1237" data-name="Groupe 1237" transform="translate(23.883)">
        <path id="Tracé_501" data-name="Tracé 501" d="M936.893,560.978c-3.856,4.9-10.7,2.826-13.749-.467s-4.154-7.882-5.153-12.256c-2.282-9.99-4.56-20.465-1.9-30.361a16.783,16.783,0,0,1,4.308-7.986,8.771,8.771,0,0,1,8.451-2.3c3.449,1.12,5.433,4.669,6.823,8.019a72,72,0,0,1,5.386,31.252c-.259,4.97-1.136,10.15-4.168,14.1" transform="translate(-914.893 -507.274)" fill="#5ab39e"/>
      </g>
      <g id="Groupe_1238" data-name="Groupe 1238" transform="translate(52.101 19.464)">
        <path id="Tracé_502" data-name="Tracé 502" d="M946.468,568.964c-3.623-4.818-3.983-11.573-1.937-17.243s6.22-10.358,10.936-14.112a54.559,54.559,0,0,1,18.713-9.68,19.351,19.351,0,0,1,8.225-.93,8.565,8.565,0,0,1,6.607,4.518c1.7,3.743-.37,8.051-2.547,11.54a138.27,138.27,0,0,1-12.909,17.457c-3.823,4.4-8.162,8.708-13.714,10.483s-11.184,1.216-13.856-2.714" transform="translate(-943.286 -526.858)" fill="#129274"/>
      </g>
      <g id="Groupe_1240" data-name="Groupe 1240" transform="translate(17.787 82.302)">
        <g id="Groupe_1239" data-name="Groupe 1239">
          <path id="Tracé_503" data-name="Tracé 503" d="M932.809,638.453a11.2,11.2,0,0,1-.194-2.336c-.071-1.7-.158-3.826-.263-6.361a91.576,91.576,0,0,0-.905-9.358,71.841,71.841,0,0,0-2.762-11.14,40.485,40.485,0,0,0-5.041-10.222,20.927,20.927,0,0,0-6.742-6.271,19.848,19.848,0,0,0-5.852-2.187,11.148,11.148,0,0,1-2.289-.462,10.82,10.82,0,0,1,2.351.094,18.079,18.079,0,0,1,6.119,1.962,20.875,20.875,0,0,1,7.128,6.345,39.512,39.512,0,0,1,5.233,10.432,67.127,67.127,0,0,1,2.729,11.318,78.708,78.708,0,0,1,.71,9.465c.051,2.7.006,4.878-.041,6.384A10.861,10.861,0,0,1,932.809,638.453Z" transform="translate(-908.76 -590.083)" fill="#1a2e35"/>
        </g>
      </g>
      <g id="Groupe_1242" data-name="Groupe 1242" transform="translate(35.646 20.549)">
        <g id="Groupe_1241" data-name="Groupe 1241">
          <path id="Tracé_504" data-name="Tracé 504" d="M932.754,633.181a4.646,4.646,0,0,1,0-1.079c.048-.808.106-1.826.18-3.075.156-2.669.37-6.533.493-11.31.3-9.553.208-22.769-.573-37.333s-2.184-27.711-3.593-37.164c-.326-2.367-.668-4.5-1-6.371-.31-1.874-.574-3.487-.841-4.8l-.553-3.029a4.67,4.67,0,0,1-.129-1.072,4.5,4.5,0,0,1,.318,1.03c.191.787.432,1.779.729,3,.325,1.3.642,2.907,1,4.776.381,1.866.77,4,1.14,6.363a349.677,349.677,0,0,1,3.881,37.217c.782,14.594.762,27.841.292,37.41-.21,4.786-.527,8.651-.8,11.315-.146,1.245-.264,2.259-.359,3.064A4.582,4.582,0,0,1,932.754,633.181Z" transform="translate(-926.729 -527.949)" fill="#1a2e35"/>
        </g>
      </g>
      <g id="Groupe_1244" data-name="Groupe 1244" transform="translate(43.003 30.893)">
        <g id="Groupe_1243" data-name="Groupe 1243">
          <path id="Tracé_505" data-name="Tracé 505" d="M934.156,607.767a20.463,20.463,0,0,1,.2-3.211c.234-2.058.684-5.027,1.47-8.651a114.925,114.925,0,0,1,3.537-12.526,112.689,112.689,0,0,1,6.14-14.712,80.066,80.066,0,0,1,16.928-23.384,39.616,39.616,0,0,1,3.853-3.2c.589-.444,1.112-.891,1.64-1.237q.793-.484,1.476-.9a20.374,20.374,0,0,1,2.8-1.581c.142.217-3.976,2.341-9.308,7.415A84.391,84.391,0,0,0,946.361,569.1a119.957,119.957,0,0,0-6.162,14.572c-1.65,4.583-2.813,8.818-3.712,12.39-.865,3.582-1.414,6.515-1.76,8.548A20.833,20.833,0,0,1,934.156,607.767Z" transform="translate(-934.132 -538.357)" fill="#1a2e35"/>
        </g>
      </g>
    </g>
    <path id="Tracé_506" data-name="Tracé 506" d="M950.7,664.556c-10.683.508-22.187-.086-34.349-.127a2.426,2.426,0,0,1-2.424-2.418v-26.7a2.414,2.414,0,0,1,2.707-2.406,141.176,141.176,0,0,0,33.648-.066,2.427,2.427,0,0,1,2.707,2.405v26.889A2.419,2.419,0,0,1,950.7,664.556Z" transform="translate(-147.394 925.72)" fill="#747474"/>
    <path id="Tracé_507" data-name="Tracé 507" d="M382.981,419.352l.487-4.741a59.878,59.878,0,0,0-5.193-4.331l-.877,1.966.249-2.427c-2.256-1.641-3.853-2.585-3.853-2.585s-.905,9.649,1.488,18.154l5.293,3.063-4.627-.974a24.321,24.321,0,0,0,1.2,2.8c4.664,9.139,11.431,15.025,15.113,13.145s2.885-10.811-1.779-19.95a31.954,31.954,0,0,0-5.884-7.761Z" transform="translate(-144.088 927.101)" fill="#88c8b9"/>
    <path id="Tracé_508" data-name="Tracé 508" d="M390.728,412.951l2.589-4a60,60,0,0,0-2.656-6.218l-1.675,1.352,1.326-2.048c-1.263-2.487-2.257-4.054-2.257-4.054s-5.193,8.184-6.928,16.847l3.323,5.134-3.677-2.971a24.145,24.145,0,0,0-.2,3.043c0,10.261,3.35,18.579,7.485,18.579s7.485-8.318,7.485-18.579a31.973,31.973,0,0,0-1.712-9.587Z" transform="translate(-144.13 927.158)" fill="#5ab39e"/>
    <path id="Tracé_509" data-name="Tracé 509" d="M409.1,421.917l4.66-1a59.816,59.816,0,0,0,2.518-6.275l-2.14-.228,2.386-.511c.865-2.653,1.27-4.464,1.27-4.464s-9.458,2.115-16.81,7.014l-1.282,5.98-.5-4.7a24.474,24.474,0,0,0-2.295,2.009c-7.255,7.256-10.767,15.508-7.844,18.431s11.174-.589,18.429-7.845a31.977,31.977,0,0,0,5.569-7.99Z" transform="translate(-144.176 927.088)" fill="#129274"/>
    <path id="Tracé_510" data-name="Tracé 510" d="M410.687,461.6c-10.778.69-22.521-.04-35.015,0v-28.6c11.009,1.714,22.749,1.538,35.015,0Z" transform="translate(-144.1 926.945)" fill="#747474"/>
  </g>
</svg>
