<svg xmlns="http://www.w3.org/2000/svg" xmlns:xlink="http://www.w3.org/1999/xlink" viewBox="0 0 251.58 224.02"><defs><clipPath id="a"><rect x="189.86" y="40.15" width="60.88" height="60.88" transform="translate(-1.76 5.76) rotate(-1.49)" fill="none"/></clipPath></defs><g clip-path="url(#a)"><path d="M250.33,54.46c0,1.94.22,8.3.22,8.63-.14,12.46-9,23.93-21.19,26.57l0,1.51a5.61,5.61,0,0,1-3.67,5.39l.07,2.55a1.79,1.79,0,0,1-3.57.09l-.06-2.55a5.59,5.59,0,0,1-3.94-5.19l0-1.66a26.53,26.53,0,0,1-21.36-22.52l-6.35-3.92a1.79,1.79,0,0,1-.07-3l6-4.16a8.86,8.86,0,0,1,1.44-4.07,5.58,5.58,0,0,1,3.32-9.58,5.58,5.58,0,0,1,8.42-.22A5.59,5.59,0,0,1,215,47.77a5.66,5.66,0,0,1-2.1,4.51,8.84,8.84,0,0,1,1.38,4.55,4.14,4.14,0,0,0,1.61,3.35,7.22,7.22,0,0,0,5.82,1c9.79-2.1,17.74-11.3,17.82-11.39a1.78,1.78,0,0,1,3.14,1.11l.17,6.53,4.55-4.19a1.78,1.78,0,0,1,3,1.26ZM202,46.11a2,2,0,0,0-1.57,3.51,8.93,8.93,0,0,1,9.93.07A2,2,0,0,0,209,45.92a1.79,1.79,0,0,1-1.8-.84,2,2,0,0,0-3.52.09,1.78,1.78,0,0,1-1.75.94Zm23.69,44.06c-1.34.09-3.18.08-3.9,0l0,1.14a2,2,0,0,0,4-.1ZM247,63.06c0-.24,0-2.29-.11-4.58l-4.55,4.2a1.79,1.79,0,0,1-3-1.27l-.16-6.26a47.88,47.88,0,0,1-4.9,4l.14,5.27a14.18,14.18,0,0,1-13.78,14.52,1.79,1.79,0,0,1-.09-3.57,10.59,10.59,0,0,0,10.3-10.85l-.08-3.14a30.11,30.11,0,0,1-8.35,3.28c-5.89,1.25-11.59-1.69-11.74-7.71a5.35,5.35,0,0,0-10.7.23,1.79,1.79,0,0,1-.77,1.5l-4.53,3.11,4.75,2.94a1.74,1.74,0,0,1,.84,1.34,23,23,0,0,0,23.43,20.64l.95,0c12.17-.32,22.19-10.9,22.34-23.59Zm0,0" fill="#d3ebfd"/></g><path d="M206.64,57.51a1.79,1.79,0,1,0-1.74,1.82,1.79,1.79,0,0,0,1.74-1.82Zm0,0" fill="#d3ebfd"/><path d="M49.67,91.29l.62-3.23,2.26.44L67.78,69.67l-2.15-.41L66.25,66l3.71.71L78,53.24l-2.54-.49.63-3.23,3.42.66,11-33-3-.58.62-3.22,3.23.62.93-4.85a1.65,1.65,0,0,1,1.93-1.3l1.61.31L97.37.05l3.22.63L99,8.74l1.61.31A1.65,1.65,0,0,1,102,11L101,15.82l3.22.62-.62,3.23-3-.58L98.52,53.83l3.43.66-.62,3.23-2.54-.49,2.48,15.54,3.71.72-.62,3.23-2.15-.42,7.15,23.14,2.26.43L111,103.1l-21-4,.62-3.23,2.6.5-.45-3.42a12,12,0,0,0-22.43-4.32l-1.69,3,2.6.5-.62,3.23-4.84-.93Zm44.9-76.71,3.23.62L98.42,12l-3.23-.62ZM82.8,50.81l12.47,2.4,2.1-34.74-3.62-.7Zm-9.4,16.6,4.55.87,4.84-9.57a1.65,1.65,0,0,1,1.78-.87L91,59.08a1.66,1.66,0,0,1,1.33,1.47l.94,10.69,4.55.87L95.35,56.57,81.48,53.9Zm15.78-5.33-4-.78L81.3,68.93l8.63,1.66Zm-33,27.12,9.06,1.74,2.23-4a15.32,15.32,0,0,1,28.55,5.5L96.64,97l9.06,1.74L98.55,75.6,71.44,70.38ZM71.44,70.38" fill="#d3ebfd" stroke="#d3ebfd" stroke-miterlimit="10" stroke-width="0.36"/><path d="M192.15,172.37l5.92,10a3.88,3.88,0,0,0,5.31,1.36l3.2-1.89a1.7,1.7,0,1,1,1.74,2.93l-16,9.47a1.7,1.7,0,0,1-1.73-2.93l3.2-1.9a3.88,3.88,0,0,0,1.36-5.31l-5.91-10a4.11,4.11,0,0,0-3.73-2,1.68,1.68,0,0,1-.58-.07h-.08a18.32,18.32,0,0,1-20.36-8.7c-2.95-5-5.42-16.34-5.52-16.82a1.71,1.71,0,0,1,.8-1.83l20.82-12.31a1.7,1.7,0,0,1,2,.18c.37.32,9.13,7.94,12.08,12.94a18.31,18.31,0,0,1-2.18,22l0,0v0a1.69,1.69,0,0,1-.21.54h0A4.09,4.09,0,0,0,192.15,172.37Zm-.45-25.14c-2.12-3.59-8-9-10.38-11.21l-.09-.08L162.56,147l0,.11c.75,3.16,2.71,10.91,4.83,14.49,4.22,7.14,13.1,9.73,19.8,5.76S195.92,154.36,191.7,147.23Z" fill="#d3ebfd"/><path d="M90.55,161.87c3.29,4.76-2.25,12.7-7.53,18.55-6.9,7.65-17.15,16-28.86,23.77S30.71,218.06,21,221.4c-5.13,1.61-11.32,3.19-15.58,2.32A6.74,6.74,0,0,1,1,221c-3.67-5.54,4.34-16.88,16.65-27.52,2.6-2.31,12.27-9.57,19.73-14.8,1.85-1.22,3.87-2.4,5.72-3.63h0c4.08-2.54,8.29-4.88,12.26-6.91.17,0,.2-.13.38-.1,4.14-2,8.24-3.82,12.11-5.34a.56.56,0,0,1,.37-.1C79,158.61,87.7,157.56,90.55,161.87Zm-2.89,2.79a3.36,3.36,0,0,0-2.24-1.17c-2.9-.59-8.41.24-15.52,2.87L68.08,177A1.75,1.75,0,0,1,66,178.36h0a1.88,1.88,0,0,1-1.36-2.05l1.41-8.6c-2.53,1.08-5.27,2.3-8.25,3.82l-2.24,13.58a1.76,1.76,0,0,1-2.06,1.36h0a1.89,1.89,0,0,1-1.36-2.06l1.73-11c-2.78,1.39-5.62,3.12-8.46,4.85l-2.35,15A1.75,1.75,0,0,1,41,194.57h0a1.88,1.88,0,0,1-1.36-2l1.94-12.05-2.47,1.63c-2.06,1.36-4.11,2.72-6,4.11l-2.55,15.11a1.75,1.75,0,0,1-2.06,1.36h0a1.88,1.88,0,0,1-1.36-2.05l2-11.67q-5,3.76-8.95,7.23l-2.18,13.24A1.74,1.74,0,0,1,16,210.79h0a1.89,1.89,0,0,1-1.36-2.06l1.48-8.94C6.43,209,2.1,216.29,3.86,219c2.71,4.11,22.37-.75,48.26-17.85,11.48-7.43,21.48-15.51,28.18-23C87.4,170.29,88.72,165.59,87.66,164.66Z" fill="#d3ebfd" stroke="#d3ebfd" stroke-miterlimit="10" stroke-width="0.22"/></svg>