<?xml version="1.0" standalone="no"?>
<!DOCTYPE svg PUBLIC "-//W3C//DTD SVG 20010904//EN"
 "http://www.w3.org/TR/2001/REC-SVG-20010904/DTD/svg10.dtd">
<svg version="1.0" xmlns="http://www.w3.org/2000/svg"
 width="260.000000pt" height="260.000000pt" viewBox="0 0 260.000000 260.000000"
 preserveAspectRatio="xMidYMid meet">
<metadata>
Created by potrace 1.11, written by Peter Selinger 2001-2013
</metadata>
<g transform="translate(0.000000,260.000000) scale(0.100000,-0.100000)"
fill="#000000" stroke="none">
<path d="M552 2378 c-37 -63 -45 -105 -39 -222 6 -119 24 -202 67 -309 104
-254 288 -428 488 -462 23 -4 44 -11 48 -16 9 -15 41 -10 48 7 9 25 -252 528
-438 843 -59 100 -129 191 -146 191 -5 0 -17 -15 -28 -32z"/>
<path d="M193 1915 c-11 -31 7 -136 35 -204 86 -204 246 -356 441 -420 54 -18
255 -54 301 -54 47 0 51 3 48 30 -2 22 -43 62 -188 187 -247 211 -520 430
-569 456 -48 24 -60 25 -68 5z"/>
<path d="M1355 1475 c-54 -53 -9 -140 65 -129 58 9 81 91 37 132 -31 29 -72
28 -102 -3z"/>
<path d="M1193 1329 c-102 -50 -173 -184 -130 -243 17 -23 81 -25 122 -3 38
19 112 93 132 132 23 43 22 104 -2 121 -27 20 -73 17 -122 -7z"/>
<path d="M1358 1182 c-20 -4 -23 -24 -7 -53 6 -11 17 -46 25 -76 20 -76 75
-177 130 -241 157 -179 504 -313 724 -280 54 9 160 53 160 67 0 37 -312 230
-660 409 -91 46 -201 103 -245 127 -93 49 -104 53 -127 47z"/>
<path d="M983 1092 c-32 -5 -65 -51 -61 -83 4 -25 1 -27 -36 -32 -51 -7 -69
-30 -62 -79 5 -32 4 -36 -10 -31 -9 3 -20 0 -25 -8 -6 -10 -9 -10 -9 -1 0 20
-28 14 -44 -10 -21 -30 -20 -61 2 -88 23 -28 77 -30 101 -4 13 14 13 16 1 10
-8 -4 -6 0 4 8 17 14 18 20 8 52 -8 28 -8 34 0 26 18 -18 73 -14 91 6 10 10
14 22 10 25 -3 4 -1 7 5 7 16 0 15 47 0 53 -7 3 4 3 24 0 66 -10 111 41 88
101 -11 29 -55 54 -87 48z m-193 -312 c0 -5 -2 -10 -4 -10 -3 0 -8 5 -11 10
-3 6 -1 10 4 10 6 0 11 -4 11 -10z"/>
<path d="M1230 1040 c-18 -11 -21 -37 -10 -80 4 -19 11 -60 14 -90 20 -178 74
-308 175 -422 83 -91 210 -175 330 -217 73 -25 159 -28 167 -6 6 16 -31 86
-80 150 -93 123 -284 355 -394 480 -15 17 -55 63 -90 103 -70 79 -91 95 -112
82z"/>
<path d="M660 758 c0 -5 -4 -7 -9 -4 -15 10 -32 -20 -29 -55 2 -37 15 -62 29
-53 5 3 9 0 9 -5 0 -15 41 -13 62 2 22 17 38 74 17 62 -11 -7 -12 -6 -2 6 11
13 8 20 -14 40 -19 17 -25 19 -20 7 4 -13 2 -15 -10 -11 -10 4 -14 2 -10 -4 3
-5 0 -10 -8 -10 -13 0 -13 3 0 17 13 15 13 17 0 17 -8 0 -15 -4 -15 -9z m-10
-38 c0 -5 -4 -10 -10 -10 -5 0 -10 5 -10 10 0 6 5 10 10 10 6 0 10 -4 10 -10z
m80 6 c0 -3 -4 -8 -10 -11 -5 -3 -10 -1 -10 4 0 6 5 11 10 11 6 0 10 -2 10 -4z
m-46 -28 c-5 -8 -2 -9 9 -5 23 9 21 0 -2 -13 -16 -8 -19 -7 -16 8 5 23 4 22
11 22 3 0 2 -5 -2 -12z m-27 -30 c-3 -8 -6 -5 -6 6 -1 11 2 17 5 13 3 -3 4
-12 1 -19z"/>
<path d="M533 637 c-19 -22 -19 -23 2 -45 16 -17 23 -20 33 -10 8 8 12 8 12 1
0 -21 -30 -22 -48 -3 -15 16 -19 17 -19 5 0 -8 4 -15 9 -15 4 0 8 -7 8 -16 0
-8 5 -12 10 -9 6 3 10 1 10 -4 0 -6 5 -11 12 -11 6 0 8 3 5 7 -4 3 2 12 12 20
12 8 17 20 14 33 -6 23 -14 25 -32 8 -11 -10 -13 -10 -7 0 4 6 2 12 -3 12 -6
0 -11 5 -11 11 0 8 4 8 13 0 10 -8 18 -5 34 13 l20 23 -27 1 c-17 0 -35 -8
-47 -21z m37 3 c0 -5 -2 -10 -4 -10 -3 0 -8 5 -11 10 -3 6 -1 10 4 10 6 0 11
-4 11 -10z"/>
<path d="M595 630 c-3 -5 -1 -19 5 -31 9 -16 8 -24 -4 -38 -20 -22 -20 -30 -1
-27 25 4 40 25 41 59 2 38 -25 63 -41 37z m30 -10 c3 -5 1 -10 -4 -10 -6 0
-11 5 -11 10 0 6 2 10 4 10 3 0 8 -4 11 -10z m-14 -73 c-10 -9 -11 -8 -5 6 3
10 9 15 12 12 3 -3 0 -11 -7 -18z"/>
<path d="M428 533 c-6 -7 -7 -13 -3 -13 4 0 2 -7 -5 -15 -7 -9 -9 -22 -5 -32
5 -10 8 -21 7 -25 -1 -4 6 -4 15 -1 11 4 14 3 9 -5 -4 -7 -1 -12 8 -12 8 0 18
5 22 11 4 8 9 7 15 -2 7 -11 9 -11 9 -1 0 7 5 10 12 6 7 -4 8 -3 4 4 -4 7 -2
12 3 12 6 0 11 7 11 15 0 8 -4 15 -10 15 -5 0 -9 -6 -7 -12 1 -8 -7 -13 -20
-12 -14 1 -20 -3 -16 -10 4 -6 -2 -4 -13 4 -18 14 -18 14 -4 -5 15 -19 14 -19
-9 -2 -23 15 -41 55 -20 41 5 -3 7 -10 4 -15 -4 -5 -1 -9 4 -9 15 0 14 13 -1
29 -11 11 -10 12 1 6 10 -6 12 -4 6 5 -6 9 -4 11 5 5 9 -6 11 -4 5 6 -8 12 -6
12 8 1 9 -8 21 -11 27 -7 6 4 9 3 8 -2 -3 -9 5 -13 25 -13 9 0 9 2 -1 9 -8 4
-14 12 -14 17 0 5 -4 8 -9 7 -5 -2 -9 1 -9 5 0 13 -50 9 -62 -5z m57 -11 c-3
-3 -11 0 -18 7 -9 10 -8 11 6 5 10 -3 15 -9 12 -12z"/>
<path d="M456 502 c-2 -4 -2 -12 2 -17 9 -12 54 -16 46 -4 -9 15 -43 30 -48
21z"/>
<path d="M352 425 c2 -10 -3 -20 -10 -22 -8 -3 -10 2 -6 14 5 15 4 15 -7 -2
-18 -27 -21 -49 -6 -37 7 5 20 10 30 11 40 3 46 5 41 13 -3 4 0 8 6 8 19 0 6
-33 -13 -36 -26 -4 -34 -14 -18 -23 42 -26 70 39 32 73 -18 16 -19 16 -17 0 0
-9 -5 -19 -12 -21 -7 -3 -10 1 -6 10 3 8 0 18 -6 22 -7 4 -10 1 -8 -10z"/>
<path d="M326 361 c-6 -10 10 -25 37 -34 11 -4 16 -3 12 3 -3 6 -13 10 -20 10
-9 0 -12 6 -9 15 6 16 -11 21 -20 6z"/>
<path d="M256 317 c3 -10 9 -15 12 -12 3 3 0 11 -7 18 -10 9 -11 8 -5 -6z"/>
<path d="M230 313 c5 -2 8 -9 4 -14 -3 -5 0 -9 6 -9 15 0 7 23 -8 26 -7 1 -8
0 -2 -3z"/>
<path d="M294 279 c-4 -7 -3 -9 4 -5 5 3 13 0 15 -6 4 -9 6 -10 6 -1 1 17 -16
25 -25 12z"/>
<path d="M235 269 c-4 -6 -5 -12 -2 -15 2 -3 7 2 10 11 7 17 1 20 -8 4z"/>
<path d="M250 250 c-6 -11 -8 -20 -6 -20 3 0 10 9 16 20 6 11 8 20 6 20 -3 0
-10 -9 -16 -20z"/>
<path d="M275 251 c-3 -5 0 -13 6 -17 7 -4 9 -3 5 4 -3 5 0 13 6 15 9 4 10 6
1 6 -6 1 -14 -3 -18 -8z"/>
</g>
</svg>
